<?xml version="1.0" encoding="utf-8"?>
<!-- Generator: Adobe Illustrator 28.0.0, SVG Export Plug-In . SVG Version: 6.00 Build 0)  -->
<svg version="1.1" id="Layer_1" xmlns="http://www.w3.org/2000/svg" xmlns:xlink="http://www.w3.org/1999/xlink" x="0px" y="0px"
	 viewBox="0 0 801 855" style="enable-background:new 0 0 801 855;" xml:space="preserve">
<style type="text/css">
	.st0{opacity:0.4;}
	.st1{clip-path:url(#SVGID_00000176765929505760788860000011670325010574965157_);}
	.st2{clip-path:url(#SVGID_00000060026015559455081650000002879223672992277131_);}
	.st3{fill:none;stroke:#808080;stroke-width:0.5;stroke-miterlimit:10;}
	.st4{fill:none;}
	.st5{fill:none;stroke:#757575;stroke-width:0.5;}
	.st6{opacity:0.8;fill:#757575;enable-background:new    ;}
	.st7{opacity:0.8;enable-background:new    ;}
	.st8{fill:#C6C6C6;}
</style>
<g id="Group_1942" transform="translate(-34 -3378)" class="st0">
	<g>
		<defs>
			<rect id="SVGID_1_" x="34" y="3378" width="801" height="855"/>
		</defs>
		<clipPath id="SVGID_00000180350449794970052470000013509033041685994112_">
			<use xlink:href="#SVGID_1_"  style="overflow:visible;"/>
		</clipPath>
		<g id="Mask_Group_7" style="clip-path:url(#SVGID_00000180350449794970052470000013509033041685994112_);">
			<g id="Group_1939" transform="translate(-52.439 3457.333)">
				<g>
					<defs>
						<rect id="SVGID_00000067235710993712021720000012861361234998149810_" x="0" y="0" width="564.9" height="828"/>
					</defs>
					<clipPath id="SVGID_00000031206899216580869200000007823695290252007825_">
						<use xlink:href="#SVGID_00000067235710993712021720000012861361234998149810_"  style="overflow:visible;"/>
					</clipPath>
					<g id="Group_1938" style="clip-path:url(#SVGID_00000031206899216580869200000007823695290252007825_);">
						<path id="Rectangle_90" class="st3" d="M19.2,0.8h526.5c10.2,0,18.4,8.2,18.4,18.4v789.6c0,10.2-8.2,18.4-18.4,18.4H19.2
							C9,827.2,0.8,819,0.8,808.8V19.2C0.8,9,9,0.8,19.2,0.8z"/>
						<path id="Rectangle_91" class="st3" d="M54.9,45.3h455c6.6,0,12,5.4,12,12v187.9c0,6.6-5.4,12-12,12h-455c-6.6,0-12-5.4-12-12
							V57.3C42.9,50.7,48.3,45.3,54.9,45.3z"/>
						<path id="Rectangle_92" class="st3" d="M54.9,302.2h455c6.6,0,12,5.4,12,12V769c0,6.6-5.4,12-12,12h-455c-6.6,0-12-5.4-12-12
							V314.2C42.9,307.5,48.3,302.2,54.9,302.2z"/>
						<line id="Line_43" class="st3" x1="43.1" y1="541.6" x2="522.1" y2="541.6"/>
						<line id="Line_44" class="st3" x1="282.6" y1="302.2" x2="282.6" y2="781"/>
						<path id="Path_6778" class="st3" d="M220.4,416.4H176v-44.5c0-1.7-1.4-3.1-3.1-3.1h0h-14.1c-1.7,0-3.1,1.4-3.1,3.1l0,0v44.5
							h-44.5c-1.7,0-3.1,1.4-3.1,3.1l0,0v14.1c0,1.7,1.4,3.1,3.1,3.1h44.5v44.5c0,1.7,1.4,3.1,3.1,3.1h14.1c1.7,0,3.1-1.4,3.1-3.1
							v-44.5h44.5c1.7,0,3.1-1.4,3.1-3.1l0,0v-14.1C223.6,417.8,222.2,416.4,220.4,416.4C220.5,416.4,220.5,416.4,220.4,416.4z"/>
						<path id="Path_6779" class="st3" d="M211.6,702.8l-31.5-31.5l31.5-31.5c1.2-1.2,1.2-3.2,0-4.4l-10-10c-1.2-1.2-3.2-1.2-4.4,0
							L165.8,657l-31.5-31.5c-1.2-1.2-3.2-1.2-4.4,0l-10,10c-1.2,1.2-1.2,3.2,0,4.4l31.5,31.5L120,702.8c-1.2,1.2-1.2,3.2,0,4.4
							l10,10c1.2,1.2,3.2,1.2,4.4,0l31.5-31.5l31.5,31.5c1.2,1.2,3.2,1.2,4.4,0l10-10C212.8,706,212.8,704,211.6,702.8z"/>
						<path id="Rectangle_93" class="st3" d="M343.4,416.4h111.5c1.1,0,2,0.9,2,2v16.3c0,1.1-0.9,2-2,2H343.4c-1.1,0-2-0.9-2-2
							v-16.3C341.4,417.3,342.3,416.4,343.4,416.4z"/>
						<path id="Rectangle_94" class="st3" d="M343.4,633.1h111.5c1.1,0,2,0.9,2,2v16.3c0,1.1-0.9,2-2,2H343.4c-1.1,0-2-0.9-2-2
							v-16.3C341.4,634,342.3,633.1,343.4,633.1z"/>
						<path id="Rectangle_95" class="st3" d="M343.4,689.3h111.5c1.1,0,2,0.9,2,2v16.3c0,1.1-0.9,2-2,2H343.4c-1.1,0-2-0.9-2-2
							v-16.3C341.4,690.2,342.3,689.3,343.4,689.3z"/>
						<circle id="Ellipse_76" class="st3" cx="282.6" cy="151.4" r="73.1"/>
						<path id="Path_6780" class="st3" d="M315.6,140.1H288l8.3-32c0.5-1.9-0.6-3.8-2.5-4.2c-1.3-0.3-2.7,0.1-3.5,1.1l-43.3,52
							c-1.2,1.5-1,3.7,0.4,4.9c0.6,0.5,1.4,0.8,2.2,0.8h27.6l-8.3,32c-0.5,1.9,0.6,3.8,2.5,4.2c1.3,0.3,2.7-0.1,3.5-1.1l43.3-52
							c1.2-1.5,1-3.7-0.4-4.9C317.2,140.4,316.4,140.1,315.6,140.1z"/>
					</g>
				</g>
			</g>
		</g>
	</g>
	<g id="Group_1940" transform="translate(673.999 4079.788)">
		<g id="Rectangle_78" transform="translate(0 0)">
			<path class="st4" d="M8,0h92.8c4.4,0,8,3.6,8,8v92.8c0,4.4-3.6,8-8,8H8c-4.4,0-8-3.6-8-8V8C0,3.6,3.6,0,8,0z"/>
			<path class="st5" d="M8,0.2h92.8c4.3,0,7.8,3.5,7.8,7.8v92.8c0,4.3-3.5,7.8-7.8,7.8H8c-4.3,0-7.7-3.5-7.7-7.8V8
				C0.3,3.7,3.7,0.2,8,0.2z"/>
		</g>
		<path id="Path_101" class="st6" d="M82.8,44.3L82.8,44.3 M81.5,45.8L80.9,48c-0.1,0.3,0,0.6,0.2,0.8c0.2,0.2,0.4,0.4,0.7,0.4h2.6
			l-3.7,4.4l0.6-2.2c0.1-0.3,0-0.6-0.2-0.8c-0.2-0.2-0.4-0.4-0.7-0.4h-2.6L81.5,45.8 M82.4,43.5c-0.1,0-0.3,0.1-0.3,0.2l-5.6,6.7
			c-0.2,0.2-0.1,0.5,0.1,0.6c0.1,0.1,0.2,0.1,0.3,0.1h3.6l-1.1,4.2c-0.1,0.2,0.1,0.5,0.3,0.5c0,0,0.1,0,0.1,0c0.1,0,0.3-0.1,0.3-0.2
			l5.6-6.7c0.2-0.2,0.1-0.5-0.1-0.6c-0.1-0.1-0.2-0.1-0.3-0.1h-3.6l1.1-4.1c0.1-0.2-0.1-0.5-0.3-0.5C82.5,43.5,82.5,43.5,82.4,43.5
			L82.4,43.5L82.4,43.5z"/>
		<path id="Path_102" class="st6" d="M28.1,73.2h-9.5c-0.2,0-0.5-0.2-0.5-0.4c0,0,0,0,0,0c0-0.2,0.2-0.5,0.4-0.5c0,0,0,0,0,0h9.5
			c0.2,0,0.5,0.2,0.5,0.4c0,0,0,0,0,0C28.5,73,28.3,73.2,28.1,73.2C28.1,73.2,28.1,73.2,28.1,73.2z"/>
		<path id="Path_103" class="st6" d="M59.2,69.7h-4.3c-0.2,0-0.5-0.2-0.5-0.4c0,0,0,0,0,0c0-0.2,0.2-0.5,0.4-0.5c0,0,0,0,0,0h4.3
			c0.2,0,0.5,0.2,0.5,0.4c0,0,0,0,0,0C59.7,69.5,59.5,69.7,59.2,69.7C59.2,69.7,59.2,69.7,59.2,69.7z"/>
		<path id="Path_104" class="st6" d="M63.8,61.2c-0.2,0-0.5-0.2-0.5-0.4c0,0,0,0,0,0v-9.5c0-2.2-1.6-4-3.7-4.3l-6.5-1
			c-2.2-0.3-4.3-1.1-6.3-2.1L35.8,38c-2.8-1.5-5.9-2.2-9-2.2h-8.2c-0.2,0-0.5-0.2-0.5-0.4c0,0,0,0,0,0c0-0.2,0.2-0.5,0.4-0.5
			c0,0,0,0,0,0h8.2c3.3,0,6.5,0.8,9.4,2.3L47.3,43c1.9,1,3.9,1.7,6,2l6.5,1c2.6,0.4,4.5,2.6,4.5,5.2v9.5
			C64.3,61,64.1,61.2,63.8,61.2C63.8,61.2,63.8,61.2,63.8,61.2z"/>
		<path id="Path_105" class="st6" d="M34.5,49.3H18.6c-0.3,0-0.5-0.2-0.5-0.5s0.2-0.5,0.5-0.5h15.9c2.3,0,4.6-0.9,6.2-2.6l3.9-3.8
			c0.2-0.2,0.5-0.2,0.6,0c0.2,0.2,0.2,0.5,0,0.6l-3.9,3.8C39.5,48.2,37,49.3,34.5,49.3L34.5,49.3z"/>
		<path id="Path_106" class="st6" d="M41.3,79.3c-5.9,0-10.7-4.8-10.7-10.7c0-5.9,4.8-10.7,10.7-10.7c5.9,0,10.7,4.8,10.7,10.7
			c0,0,0,0,0,0C51.9,74.5,47.2,79.2,41.3,79.3z M41.3,58.8c-5.4,0-9.8,4.4-9.8,9.8c0,5.4,4.4,9.8,9.8,9.8c5.4,0,9.8-4.4,9.8-9.8
			c0,0,0,0,0,0C51,63.2,46.7,58.8,41.3,58.8z"/>
		<path id="Path_107" class="st6" d="M41.3,72.7c-2.3,0-4.1-1.8-4.1-4.1c0-2.3,1.8-4.1,4.1-4.1c2.3,0,4.1,1.8,4.1,4.1l0,0
			C45.4,70.8,43.5,72.7,41.3,72.7z M41.3,65.4c-1.8,0-3.2,1.4-3.2,3.2s1.4,3.2,3.2,3.2c1.8,0,3.2-1.4,3.2-3.2
			C44.5,66.8,43,65.4,41.3,65.4L41.3,65.4z"/>
		<path id="Path_108" class="st6" d="M24.4,55.8h-5.8c-0.2,0-0.5-0.2-0.5-0.4c0,0,0,0,0,0c0-0.2,0.2-0.5,0.4-0.5c0,0,0,0,0,0h5.8
			c0.2,0,0.5,0.2,0.5,0.4c0,0,0,0,0,0C24.9,55.6,24.7,55.8,24.4,55.8C24.4,55.8,24.4,55.8,24.4,55.8z"/>
		<path id="Path_109" class="st6" d="M63.8,53.8h-3.2c-1.9,0-3.5-1.6-3.5-3.5s1.6-3.5,3.5-3.5h1.1c0.2,0,0.5,0.2,0.5,0.4
			c0,0,0,0,0,0c0,0.2-0.2,0.5-0.4,0.5c0,0,0,0,0,0h-1.1c-1.4,0-2.6,1.2-2.6,2.6s1.2,2.6,2.6,2.6h3.2c0.3,0,0.5,0.2,0.5,0.5
			S64.1,53.8,63.8,53.8L63.8,53.8z"/>
		<path id="Path_110" class="st6" d="M48.7,55.4H45c-1.7,0-3.1-1.4-3.1-3.1c0-1.7,1.4-3.1,3.1-3.1h3.7c0.2,0,0.5,0.2,0.5,0.4
			c0,0,0,0,0,0V55C49.1,55.2,48.9,55.4,48.7,55.4C48.7,55.4,48.7,55.4,48.7,55.4z M45,50.2c-1.2,0-2.2,1-2.2,2.2
			c0,1.2,1,2.2,2.2,2.2h3.3v-4.4H45z"/>
		<path id="Path_111" class="st6" d="M72,73.5h-5.8c-0.2,0-0.3-0.1-0.4-0.2l-14-20.5h-3.2c-0.2,0-0.5-0.2-0.5-0.4c0,0,0,0,0,0
			c0-0.2,0.2-0.5,0.4-0.5c0,0,0,0,0,0h3.4c0.2,0,0.3,0.1,0.4,0.2l14,20.5h5.1V57c0-0.3,0.2-0.5,0.5-0.5c0.3,0,0.5,0.2,0.5,0.5V73
			C72.5,73.3,72.3,73.5,72,73.5C72,73.5,72,73.5,72,73.5z"/>
		<path id="Path_112" class="st6" d="M84,65.1h-5.9c-3.6,0-6.5-2.9-6.5-6.5V39.6c0-3.6,2.9-6.5,6.5-6.5H84c3.6,0,6.5,2.9,6.5,6.5
			v18.9C90.5,62.2,87.6,65.1,84,65.1z M78.1,34c-3.1,0-5.6,2.5-5.6,5.6v18.9c0,3.1,2.5,5.6,5.6,5.6H84c3.1,0,5.6-2.5,5.6-5.6V39.6
			c0-3.1-2.5-5.6-5.6-5.6H78.1z"/>
		<path id="Path_113" class="st6" d="M84.7,79.3h-7.2c-0.2,0-0.5-0.2-0.5-0.4c0,0,0,0,0,0V64.6c0-0.2,0.2-0.5,0.4-0.5c0,0,0,0,0,0
			h7.2c0.2,0,0.5,0.2,0.5,0.4c0,0,0,0,0,0v14.2C85.1,79,84.9,79.3,84.7,79.3C84.7,79.3,84.7,79.3,84.7,79.3z M77.9,78.3h6.3V65.1
			h-6.3V78.3z"/>
		<path id="Path_114" class="st6" d="M88.1,79.3H18.6c-0.2,0-0.5-0.2-0.5-0.4c0,0,0,0,0,0c0-0.2,0.2-0.5,0.4-0.5c0,0,0,0,0,0h69.6
			c0.2,0,0.5,0.2,0.5,0.4c0,0,0,0,0,0C88.6,79,88.4,79.3,88.1,79.3C88.1,79.3,88.1,79.3,88.1,79.3z"/>
		<path id="Path_115" class="st6" d="M30.4,49.3c-0.2,0-0.5-0.2-0.5-0.4c0,0,0,0,0,0V35.7c0-0.2,0.2-0.5,0.4-0.5c0,0,0,0,0,0
			c0.2,0,0.5,0.2,0.5,0.4c0,0,0,0,0,0v13.1C30.9,49,30.7,49.3,30.4,49.3C30.4,49.3,30.4,49.3,30.4,49.3z"/>
	</g>
	<g id="Rectangle_1" transform="translate(673.999 3655)">
		<path class="st4" d="M8,0h92.8c4.4,0,8,3.6,8,8v92.8c0,4.4-3.6,8-8,8H8c-4.4,0-8-3.6-8-8V8C0,3.6,3.6,0,8,0z"/>
		<path class="st5" d="M8,0.2h92.8c4.3,0,7.8,3.5,7.8,7.8v92.8c0,4.3-3.5,7.8-7.8,7.8H8c-4.3,0-7.7-3.5-7.7-7.8V8
			C0.3,3.7,3.7,0.2,8,0.2z"/>
	</g>
	<path id="Path_89" class="st6" d="M739.7,3732.1h-18.8c-0.2,0-0.5-0.2-0.5-0.4c0,0,0,0,0,0c0-0.2,0.2-0.5,0.4-0.5c0,0,0,0,0,0h18.8
		c0.2,0,0.5,0.2,0.5,0.4c0,0,0,0,0,0C740.2,3731.9,740,3732.1,739.7,3732.1C739.7,3732.1,739.7,3732.1,739.7,3732.1z"/>
	<path id="Path_90" class="st6" d="M758.2,3732.1h-0.9c-0.3,0-0.5-0.2-0.5-0.5c0-0.3,0.2-0.5,0.5-0.5h0.9c1,0,1.8-0.8,1.8-1.8v-22.2
		c0-1-0.8-1.8-1.8-1.8h-5c-0.2,0-0.5-0.2-0.5-0.4c0,0,0,0,0,0c0-0.2,0.2-0.5,0.4-0.5c0,0,0,0,0,0h5c1.5,0,2.7,1.2,2.7,2.7v22.2
		C761,3730.8,759.7,3732.1,758.2,3732.1z"/>
	<path id="Path_91" class="st6" d="M703.2,3732.1h-5.4c-1.5,0-2.7-1.2-2.7-2.7v-22.2c0-1.5,1.2-2.7,2.7-2.7H734
		c0.2,0,0.5,0.2,0.5,0.4c0,0,0,0,0,0c0,0.2-0.2,0.5-0.4,0.5c0,0,0,0,0,0h-36.2c-1,0-1.8,0.8-1.8,1.8v22.2c0,1,0.8,1.8,1.8,1.8
		c0,0,0,0,0,0h5.4c0.3,0,0.5,0.2,0.5,0.5C703.6,3731.9,703.4,3732.1,703.2,3732.1L703.2,3732.1z"/>
	<path id="Path_92" class="st6" d="M728.1,3718.7h-18.3c-0.7,0-1.3-0.6-1.3-1.3c0,0,0,0,0,0v-6.2c0-0.7,0.6-1.3,1.3-1.3c0,0,0,0,0,0
		h18.3c0.7,0,1.3,0.6,1.3,1.3c0,0,0,0,0,0v6.2C729.4,3718.1,728.8,3718.7,728.1,3718.7C728.1,3718.7,728.1,3718.7,728.1,3718.7z
		 M709.8,3710.9c-0.2,0-0.4,0.2-0.4,0.4c0,0,0,0,0,0v6.2c0,0.2,0.2,0.4,0.4,0.4h18.3c0.2,0,0.4-0.2,0.4-0.4c0,0,0,0,0,0v-6.2
		c0-0.2-0.2-0.4-0.4-0.4H709.8z"/>
	<path id="Path_93" class="st6" d="M702.7,3718.7h-7.2c-0.3,0-0.5-0.2-0.5-0.5s0.2-0.5,0.5-0.5h7.2c0.3,0,0.6-0.3,0.6-0.6
		c0,0,0,0,0,0v-5.7c0-0.3-0.3-0.6-0.6-0.6c0,0,0,0,0,0h-7.2c-0.2,0-0.5-0.2-0.5-0.4c0,0,0,0,0,0c0-0.2,0.2-0.5,0.4-0.5c0,0,0,0,0,0
		h7.2c0.8,0,1.5,0.7,1.5,1.5c0,0,0,0,0,0v5.7C704.2,3718,703.5,3718.7,702.7,3718.7L702.7,3718.7z"/>
	<path id="Path_94" class="st6" d="M760.5,3718.7h-9.7c-0.8,0-1.5-0.7-1.5-1.5v-5.7c0-0.8,0.7-1.5,1.5-1.5h9.7
		c0.2,0,0.5,0.2,0.5,0.4c0,0,0,0,0,0c0,0.2-0.2,0.5-0.4,0.5c0,0,0,0,0,0h-9.7c-0.3,0-0.6,0.3-0.6,0.6c0,0,0,0,0,0v5.7
		c0,0.3,0.3,0.6,0.6,0.6c0,0,0,0,0,0h9.7c0.3,0,0.5,0.2,0.5,0.5S760.8,3718.7,760.5,3718.7L760.5,3718.7z"/>
	<path id="Path_95" class="st6" d="M734,3732.1c-0.2,0-0.5-0.2-0.5-0.4c0,0,0,0,0,0v-21.2c0-0.2,0.2-0.5,0.4-0.5c0,0,0,0,0,0h10.9
		c0.2,0,0.5,0.2,0.5,0.4c0,0,0,0,0,0v12.1c0,0.3-0.2,0.5-0.5,0.5c-0.3,0-0.5-0.2-0.5-0.5l0,0v-11.6h-9.9v20.7
		C734.5,3731.9,734.3,3732.1,734,3732.1C734,3732.1,734,3732.1,734,3732.1L734,3732.1z"/>
	<path id="Path_96" class="st6" d="M712,3737.7c-3.4,0-6.1-2.7-6.1-6.1c0-3.4,2.7-6.1,6.1-6.1s6.1,2.7,6.1,6.1
		C718.2,3735,715.4,3737.7,712,3737.7z M712,3726.4c-2.9,0-5.2,2.3-5.2,5.2s2.3,5.2,5.2,5.2s5.2-2.3,5.2-5.2
		C717.3,3728.7,714.9,3726.4,712,3726.4z"/>
	<path id="Path_97" class="st6" d="M748.6,3737.7c-3.4,0-6.1-2.7-6.1-6.1c0-3.4,2.7-6.1,6.1-6.1s6.1,2.7,6.1,6.1
		C754.7,3735,752,3737.7,748.6,3737.7z M748.6,3726.4c-2.9,0-5.2,2.3-5.2,5.2s2.3,5.2,5.2,5.2s5.2-2.3,5.2-5.2
		C753.8,3728.7,751.5,3726.4,748.6,3726.4z"/>
	<path id="Path_98" class="st6" d="M725.8,3705.3c-0.2,0-0.3-0.1-0.4-0.3l-1.7-3.7c-0.3-0.8-1.1-1.2-1.9-1.2h-15.4v4.7
		c0,0.2-0.2,0.5-0.4,0.5c0,0,0,0,0,0c-0.2,0-0.5-0.2-0.5-0.4c0,0,0,0,0,0v-5.2c0-0.2,0.2-0.5,0.4-0.5c0,0,0,0,0,0h15.9
		c1.2,0,2.3,0.7,2.8,1.8l1.7,3.7c0.1,0.2,0,0.5-0.2,0.6C725.9,3705.3,725.8,3705.3,725.8,3705.3L725.8,3705.3z"/>
	<path id="Path_99" class="st6" d="M762.1,3738.3h-67.7c-0.2,0-0.5-0.2-0.5-0.4c0,0,0,0,0,0c0-0.2,0.2-0.5,0.4-0.5c0,0,0,0,0,0h67.7
		c0.2,0,0.5,0.2,0.5,0.4c0,0,0,0,0,0C762.5,3738.1,762.3,3738.3,762.1,3738.3C762.1,3738.3,762.1,3738.3,762.1,3738.3z"/>
	<path id="Path_100" class="st6" d="M745.6,3686.9L745.6,3686.9 M744.5,3688.2l-0.9,3.4c-0.1,0.3,0,0.6,0.2,0.8
		c0.2,0.2,0.4,0.4,0.7,0.4h3.5l-5.2,6.2l0.9-3.4c0.1-0.3,0-0.6-0.2-0.8c-0.2-0.2-0.4-0.4-0.7-0.4h-3.5L744.5,3688.2 M745.3,3686.1
		c-0.2,0-0.3,0.1-0.4,0.2l-6.7,8.1c-0.2,0.2-0.2,0.6,0.1,0.8c0.1,0.1,0.2,0.1,0.4,0.1h4.3l-1.3,5c-0.1,0.3,0.1,0.6,0.4,0.7
		c0.2,0.1,0.4,0,0.6-0.2l6.7-8.1c0.2-0.2,0.2-0.6-0.1-0.8c-0.1-0.1-0.2-0.1-0.3-0.1h-4.3l1.3-4.9c0.1-0.3-0.1-0.6-0.4-0.7
		C745.4,3686.1,745.4,3686.1,745.3,3686.1L745.3,3686.1L745.3,3686.1z"/>
	<g id="Rectangle_80" transform="translate(673.999 3937.925)">
		<path class="st4" d="M8,0h92.8c4.4,0,8,3.6,8,8v92.8c0,4.4-3.6,8-8,8H8c-4.4,0-8-3.6-8-8V8C0,3.6,3.6,0,8,0z"/>
		<path class="st5" d="M8,0.2h92.8c4.3,0,7.8,3.5,7.8,7.8v92.8c0,4.3-3.5,7.8-7.8,7.8H8c-4.3,0-7.7-3.5-7.7-7.8V8
			C0.3,3.7,3.7,0.2,8,0.2z"/>
	</g>
	<path id="Path_186" class="st6" d="M750.8,4020.7h-45.5c-0.2,0-0.5-0.2-0.5-0.4c0,0,0,0,0,0v-51c0-2,1.6-3.6,3.6-3.6h39.1
		c2,0,3.6,1.6,3.6,3.6v51C751.3,4020.5,751.1,4020.7,750.8,4020.7C750.8,4020.7,750.8,4020.7,750.8,4020.7L750.8,4020.7z
		 M705.7,4019.8h44.6v-50.6c0-1.5-1.2-2.7-2.7-2.7h-39.1c-1.5,0-2.7,1.2-2.7,2.7V4019.8z"/>
	<path id="Path_187" class="st6" d="M720.6,3971.1h-10.2c-0.2,0-0.5-0.2-0.5-0.4c0,0,0,0,0,0c0-0.2,0.2-0.5,0.4-0.5c0,0,0,0,0,0
		h10.2c0.2,0,0.5,0.2,0.5,0.4c0,0,0,0,0,0C721,3970.9,720.8,3971.1,720.6,3971.1C720.6,3971.1,720.6,3971.1,720.6,3971.1z"/>
	<path id="Path_188" class="st6" d="M726.7,3971.1h-2.5c-0.2,0-0.5-0.2-0.5-0.4c0,0,0,0,0,0c0-0.2,0.2-0.5,0.4-0.5c0,0,0,0,0,0h2.5
		c0.2,0,0.5,0.2,0.5,0.4c0,0,0,0,0,0C727.1,3970.9,726.9,3971.1,726.7,3971.1C726.7,3971.1,726.7,3971.1,726.7,3971.1z"/>
	<path id="Path_189" class="st6" d="M736.8,3972.9c-1.3,0-2.4-1.1-2.4-2.4c0-1.3,1.1-2.4,2.4-2.4s2.4,1.1,2.4,2.4
		C739.2,3971.8,738.2,3972.9,736.8,3972.9z M736.8,3969c-0.8,0-1.5,0.7-1.5,1.5s0.7,1.5,1.5,1.5s1.5-0.7,1.5-1.5l0,0
		C738.3,3969.7,737.7,3969,736.8,3969C736.9,3969,736.9,3969,736.8,3969z"/>
	<path id="Path_190" class="st6" d="M743.6,3972.9c-1.3,0-2.4-1.1-2.4-2.4c0-1.3,1.1-2.4,2.4-2.4s2.4,1.1,2.4,2.4
		C746,3971.8,744.9,3972.9,743.6,3972.9z M743.6,3969c-0.8,0-1.5,0.7-1.5,1.5s0.7,1.5,1.5,1.5s1.5-0.7,1.5-1.5l0,0
		C745,3969.7,744.4,3969,743.6,3969C743.6,3969,743.6,3969,743.6,3969z"/>
	<path id="Path_191" class="st6" d="M748.5,3974.9H707c-0.2,0-0.5-0.2-0.5-0.4c0,0,0,0,0,0c0-0.2,0.2-0.5,0.4-0.5c0,0,0,0,0,0h41.5
		c0.2,0,0.5,0.2,0.5,0.4c0,0,0,0,0,0C749,3974.7,748.8,3974.9,748.5,3974.9C748.6,3974.9,748.6,3974.9,748.5,3974.9L748.5,3974.9z"
		/>
	<path id="Path_192" class="st6" d="M727.9,4014.5c-9.4,0-17-7.6-17-17.1c0-9.4,7.6-17,17.1-17c6.9,0,13.1,4.2,15.8,10.6
		c0.1,0.1,0,0.3,0,0.4c-0.1,0.1-0.2,0.2-0.4,0.2h-0.4c-2.4,0-4.3,2-4.3,4.3v2.9c0,1.1,0.5,2.2,1.3,3c0.8,0.8,1.9,1.3,3.1,1.3h0.5
		c0.2,0,0.3,0.1,0.4,0.2c0.1,0.1,0.1,0.3,0,0.4C741.2,4010.3,734.9,4014.5,727.9,4014.5L727.9,4014.5z M727.9,3981.3
		c-8.9,0-16.1,7.2-16.1,16.1c0,8.9,7.2,16.1,16.1,16.1c6.4,0,12.2-3.8,14.7-9.6c-2.8-0.1-5.1-2.4-5.1-5.2v-2.9c0-2.8,2.2-5.1,5-5.2
		C740,3984.9,734.3,3981.3,727.9,3981.3L727.9,3981.3z"/>
	<path id="Path_193" class="st6" d="M727.9,4010.4c-7.1,0-12.9-5.8-12.9-12.9c0-7.1,5.8-12.9,12.9-12.9c5.2,0,9.9,3.1,11.9,7.9
		c0.1,0.2,0,0.4-0.1,0.5c-0.8,0.8-1.2,1.9-1.2,3v2.9c0,1.1,0.5,2.2,1.3,3c0.1,0.1,0.2,0.3,0.1,0.5
		C737.9,4007.2,733.2,4010.4,727.9,4010.4L727.9,4010.4z M727.9,3985.4c-6.6,0-12,5.4-12,12c0,6.6,5.4,12,12,12
		c4.8,0,9.1-2.8,11-7.2c-0.8-1-1.3-2.2-1.3-3.5v-2.9c0-1.2,0.5-2.5,1.3-3.4C737,3988.2,732.7,3985.4,727.9,3985.4z"/>
	<path id="Path_194" class="st6" d="M720,3997.9c-0.2,0-0.5-0.2-0.5-0.4c0,0,0,0,0,0c0-4.6,3.7-8.3,8.3-8.3c0.2,0,0.5,0.2,0.5,0.4
		c0,0,0,0,0,0c0,0.2-0.2,0.5-0.4,0.5c0,0,0,0,0,0c-4.1,0-7.4,3.3-7.4,7.4C720.5,3997.7,720.3,3997.9,720,3997.9
		C720.1,3997.9,720.1,3997.9,720,3997.9z"/>
	<path id="Path_195" class="st6" d="M743.4,4004h-0.5c-2.9,0-5.2-2.4-5.2-5.2v-2.9c0-2.9,2.3-5.2,5.2-5.2h0.4c0.2,0,0.3,0.1,0.4,0.3
		c0.9,2.1,1.3,4.3,1.3,6.5c0,2.2-0.4,4.3-1.2,6.3C743.7,4003.9,743.6,4004,743.4,4004L743.4,4004z M742.9,3991.6
		c-1.2,0-2.3,0.5-3.1,1.3c-0.8,0.8-1.2,1.9-1.2,3v2.9c0,1.1,0.5,2.2,1.3,3c0.8,0.8,1.9,1.3,3.1,1.3h0.2c0.7-1.8,1-3.7,1-5.7
		c0-2-0.4-4-1.1-5.9L742.9,3991.6L742.9,3991.6z"/>
	<g id="Rectangle_75" transform="translate(673.999 3796.462)">
		<path class="st4" d="M8,0h92.8c4.4,0,8,3.6,8,8v92.8c0,4.4-3.6,8-8,8H8c-4.4,0-8-3.6-8-8V8C0,3.6,3.6,0,8,0z"/>
		<path class="st5" d="M8,0.3h92.8c4.3,0,7.8,3.5,7.8,7.8v92.8c0,4.3-3.5,7.8-7.8,7.8H8c-4.3,0-7.7-3.5-7.7-7.8V8
			C0.3,3.7,3.7,0.3,8,0.3z"/>
	</g>
	<path id="Path_135" class="st6" d="M714.4,3859c-5.3,0-9.6-4.3-9.6-9.6s4.3-9.6,9.6-9.6c5.3,0,9.6,4.3,9.6,9.6
		C724,3854.7,719.7,3859,714.4,3859z M714.4,3840.7c-4.8,0-8.7,3.9-8.7,8.7s3.9,8.7,8.7,8.7c4.8,0,8.7-3.9,8.7-8.7c0,0,0,0,0,0
		C723.1,3844.6,719.2,3840.7,714.4,3840.7z"/>
	<path id="Path_136" class="st6" d="M716.1,3844.2L716.1,3844.2 M714.7,3845.8l-0.5,2c-0.1,0.3,0,0.6,0.2,0.8
		c0.2,0.2,0.4,0.4,0.7,0.4h2.4l-3.4,4.1l0.5-2c0.1-0.3,0-0.6-0.2-0.8c-0.2-0.2-0.4-0.4-0.7-0.4h-2.4L714.7,3845.8 M715.7,3843.5
		c-0.1,0-0.2,0.1-0.3,0.2l-5.4,6.5c-0.2,0.2-0.1,0.5,0.1,0.6c0.1,0.1,0.2,0.1,0.3,0.1h3.4l-1,4c-0.1,0.2,0.1,0.5,0.3,0.5
		c0,0,0.1,0,0.1,0c0.1,0,0.2-0.1,0.3-0.2l5.4-6.5c0.2-0.2,0.1-0.5-0.1-0.6c-0.1-0.1-0.2-0.1-0.3-0.1h-3.5l1-4
		c0.1-0.2-0.1-0.5-0.3-0.5C715.8,3843.5,715.8,3843.5,715.7,3843.5L715.7,3843.5L715.7,3843.5z"/>
	<path id="Path_137" class="st6" d="M707.6,3880.1c-4,0-7.3-3.3-7.3-7.3s3.3-7.3,7.3-7.3s7.3,3.3,7.3,7.3
		C714.9,3876.8,711.6,3880.1,707.6,3880.1z M707.6,3866.4c-3.5,0-6.4,2.9-6.4,6.4s2.9,6.4,6.4,6.4s6.4-2.9,6.4-6.4c0,0,0,0,0,0
		C714,3869.2,711.1,3866.4,707.6,3866.4z"/>
	<path id="Path_138" class="st6" d="M707.6,3875.9c-1.7,0-3.2-1.4-3.2-3.2s1.4-3.2,3.2-3.2s3.2,1.4,3.2,3.2
		C710.8,3874.5,709.3,3875.9,707.6,3875.9z M707.6,3870.5c-1.2,0-2.3,1-2.3,2.3s1,2.3,2.3,2.3c1.2,0,2.3-1,2.3-2.3l0,0
		C709.9,3871.5,708.8,3870.5,707.6,3870.5z"/>
	<path id="Path_139" class="st6" d="M749.1,3880.1c-4,0-7.3-3.3-7.3-7.3s3.3-7.3,7.3-7.3s7.3,3.3,7.3,7.3
		C756.4,3876.8,753.1,3880.1,749.1,3880.1z M749.1,3866.4c-3.5,0-6.4,2.9-6.4,6.4s2.9,6.4,6.4,6.4s6.4-2.9,6.4-6.4c0,0,0,0,0,0
		C755.5,3869.2,752.6,3866.4,749.1,3866.4z"/>
	<path id="Path_140" class="st6" d="M749.1,3875.9c-1.7,0-3.2-1.4-3.2-3.2s1.4-3.2,3.2-3.2s3.2,1.4,3.2,3.2
		C752.3,3874.5,750.8,3875.9,749.1,3875.9z M749.1,3870.5c-1.2,0-2.3,1-2.3,2.3s1,2.3,2.3,2.3c1.2,0,2.3-1,2.3-2.3l0,0
		C751.4,3871.5,750.3,3870.5,749.1,3870.5z"/>
	<path id="Path_141" class="st6" d="M743,3870.1h-29.3c-0.2,0-0.5-0.2-0.5-0.4c0,0,0,0,0,0c0-0.2,0.2-0.5,0.4-0.5c0,0,0,0,0,0H743
		c0.2,0,0.5,0.2,0.5,0.4c0,0,0,0,0,0C743.5,3869.9,743.3,3870.1,743,3870.1C743,3870.1,743,3870.1,743,3870.1L743,3870.1z"/>
	<path id="Path_142" class="st6" d="M743,3876.4h-29.3c-0.2,0-0.5-0.2-0.5-0.4c0,0,0,0,0,0c0-0.2,0.2-0.5,0.4-0.5c0,0,0,0,0,0H743
		c0.2,0,0.5,0.2,0.5,0.4c0,0,0,0,0,0C743.5,3876.1,743.3,3876.3,743,3876.4C743,3876.4,743,3876.4,743,3876.4L743,3876.4z"/>
	<path id="Path_143" class="st6" d="M745,3867.7c-0.2,0-0.4-0.1-0.4-0.3l-3.6-15.1c-0.1-0.2,0.1-0.5,0.3-0.5c0,0,0,0,0,0l6.1-1.4
		c0.1,0,0.2,0,0.3,0.1c0.1,0.1,0.2,0.2,0.2,0.3l3.6,15.1c0.1,0.2-0.1,0.5-0.3,0.5c0,0,0,0,0,0c-0.2,0.1-0.5-0.1-0.5-0.3c0,0,0,0,0,0
		l-3.5-14.6l-5.2,1.2l3.5,14.7c0.1,0.2-0.1,0.5-0.3,0.5C745.1,3867.7,745.1,3867.7,745,3867.7C745.1,3867.7,745.1,3867.7,745,3867.7
		L745,3867.7z"/>
	<path id="Path_144" class="st6" d="M746.1,3851.4c-0.2,0-0.4-0.1-0.4-0.3l-6.4-24.3c-0.1-0.5-0.6-0.8-1.1-0.8h-5.1
		c-0.2,0-0.5-0.2-0.5-0.4c0,0,0,0,0,0c0-0.2,0.2-0.5,0.4-0.5c0,0,0,0,0,0h5.1c0.9,0,1.7,0.6,1.9,1.5l6.4,24.3
		c0.1,0.2-0.1,0.5-0.3,0.6c0,0,0,0,0,0C746.2,3851.4,746.1,3851.4,746.1,3851.4L746.1,3851.4z"/>
	<path id="Path_145" class="st6" d="M742.9,3852.3c-0.2,0-0.4-0.1-0.4-0.3l-5.8-22c-0.1-0.5-0.6-0.8-1.1-0.8h-2.5
		c-0.2,0-0.5-0.2-0.5-0.4c0,0,0,0,0,0c0-0.2,0.2-0.5,0.4-0.5c0,0,0,0,0,0h2.5c0.9,0,1.7,0.6,1.9,1.5l5.8,22c0.1,0.2-0.1,0.5-0.3,0.6
		c0,0,0,0,0,0C742.9,3852.3,742.9,3852.3,742.9,3852.3z"/>
	<path id="Path_146" class="st6" d="M731.3,3830.1h-6.2c-1.2,0-2.2-1-2.2-2.2v-1.5c0-1.2,1-2.2,2.2-2.2h6.2c1.2,0,2.2,1,2.2,2.2v1.5
		C733.5,3829.1,732.5,3830.1,731.3,3830.1L731.3,3830.1z M725.1,3825c-0.7,0-1.3,0.6-1.3,1.3l0,0v1.5c0,0.7,0.6,1.3,1.3,1.3l0,0h6.2
		c0.7,0,1.3-0.6,1.3-1.3l0,0v-1.5c0-0.7-0.6-1.3-1.3-1.3l0,0L725.1,3825L725.1,3825z"/>
	<path id="Path_147" class="st6" d="M735.9,3870.1c-0.1,0-0.1,0-0.2,0c-0.2-0.1-0.3-0.4-0.2-0.6l2.6-6c0.5-1.2,1.7-2,3.1-2h2.6
		c0.2,0,0.5,0.2,0.5,0.4c0,0,0,0,0,0c0,0.2-0.2,0.5-0.4,0.5c0,0,0,0,0,0h-2.6c-1,0-1.9,0.6-2.2,1.5l-2.6,6
		C736.3,3870,736.1,3870.1,735.9,3870.1L735.9,3870.1z"/>
</g>
<g class="st7">
	<path class="st8" d="M709.5,327.3c-6.7,0-12.1-5.4-12.1-12.1s5.4-12.1,12.1-12.1s12.1,5.4,12.1,12.1S716.2,327.3,709.5,327.3z
		 M709.5,303.8c-6.3,0-11.3,5.1-11.3,11.3s5.1,11.3,11.3,11.3s11.3-5.1,11.3-11.3S715.7,303.8,709.5,303.8z"/>
</g>
</svg>
