<svg xmlns="http://www.w3.org/2000/svg" width="89" height="81.775" viewBox="0 0 89 81.775"><defs><style>.a{fill:#fff;}</style></defs><g transform="translate(-925.002 -706.831)"><path class="a" d="M997.315,752.285a.491.491,0,0,0-.021-.067A16.763,16.763,0,0,0,984.856,741.6a.639.639,0,0,0-.761.72,5.394,5.394,0,0,1-.053,1.9,4.83,4.83,0,0,0-.677-.449,4.882,4.882,0,0,0-2.542-.6.639.639,0,0,0-.375,1.139,1.377,1.377,0,0,1,.518.987,1.156,1.156,0,0,1-.053.367,7.325,7.325,0,0,0-.878.171,8.765,8.765,0,0,0-4.39,2.92,10.878,10.878,0,0,0-2.208,3.931l-.034.1a9.011,9.011,0,0,0-.226,4.976,1.646,1.646,0,0,0-.888.279c-.512.349-1.28,1.312-.67,3.846a3.6,3.6,0,0,0,1.588,2.42c.281.2.327.244.348.35l0,.011c1.112,7.289,6.015,12.576,11.672,12.576s10.565-5.292,11.675-12.586h0c.021-.107.067-.153.347-.35a3.6,3.6,0,0,0,1.588-2.42c.609-2.534-.159-3.5-.67-3.846a1.632,1.632,0,0,0-.772-.274A11.776,11.776,0,0,0,997.315,752.285Zm-22.7.92.04-.122a9.641,9.641,0,0,1,1.948-3.477,7.6,7.6,0,0,1,3.754-2.53,6.19,6.19,0,0,1,1.042-.177.639.639,0,0,0,.5-.315,2.509,2.509,0,0,0,.347-1.31,2.408,2.408,0,0,0-.1-.645,3.452,3.452,0,0,1,.606.263,3.6,3.6,0,0,1,1.087.921.639.639,0,0,0,1.091-.152,6.57,6.57,0,0,0,.5-2.61,15.462,15.462,0,0,1,10.652,9.581,10.576,10.576,0,0,1,.158,4.462,11.6,11.6,0,0,0-3.194-5.886.639.639,0,0,0-1.03.184,6.758,6.758,0,0,1-1.741,2.34c-2.816,2.387-7.837,2.22-12.794-.423a.641.641,0,0,0-.825.2,13.612,13.612,0,0,0-2.07,4.567A7.753,7.753,0,0,1,974.614,753.205Zm22.839,5.9c.3.2.512.975.147,2.491a2.36,2.36,0,0,1-1.08,1.672,1.774,1.774,0,0,0-.867,1.151s0,.009,0,.014a.134.134,0,0,0-.005.014c-1,6.679-5.385,11.526-10.416,11.526s-9.41-4.848-10.415-11.526c0-.007-.006-.012-.007-.019s0-.006,0-.009a1.773,1.773,0,0,0-.867-1.151,2.356,2.356,0,0,1-1.08-1.672c-.365-1.516-.15-2.289.146-2.491a.535.535,0,0,1,.586.066c.019.013.041.015.06.026a8.955,8.955,0,0,0,.686,1.344.641.641,0,0,0,.54.3.648.648,0,0,0,.151-.018.64.64,0,0,0,.486-.564,12.368,12.368,0,0,1,1.878-5.55c5.26,2.631,10.593,2.645,13.707,0a7.749,7.749,0,0,0,1.638-1.95,10.282,10.282,0,0,1,1.673,2.728,10.461,10.461,0,0,1,.773,4.667.639.639,0,0,0,1.2.341,11.172,11.172,0,0,0,.61-1.4A.467.467,0,0,1,997.453,759.1Z" transform="translate(-16.741 -12.543)"/><path class="a" d="M988.166,775.343a.638.638,0,0,0-.639-.639h-2.57a.639.639,0,1,0,0,1.278h2.57A.639.639,0,0,0,988.166,775.343Z" transform="translate(-21.404 -24.492)"/><path class="a" d="M1000.165,774.7H997.6a.639.639,0,1,0,0,1.278h2.57a.639.639,0,1,0,0-1.278Z" transform="translate(-25.965 -24.492)"/><path class="a" d="M993.561,786.947a3.848,3.848,0,0,1-5.029,0,.639.639,0,0,0-.773,1.018,5.1,5.1,0,0,0,6.574,0,.639.639,0,1,0-.772-1.018Z" transform="translate(-22.555 -28.863)"/><path class="a" d="M965.356,725.487h3.166a1.389,1.389,0,0,1,1.5,1.234V733.4a.639.639,0,0,0,1.278,0v-6.677a2.66,2.66,0,0,0-2.78-2.512h-3.166a1.517,1.517,0,0,1-1.42-.82,1.012,1.012,0,0,1,.171-1.11l16.52-13.6a1.779,1.779,0,0,1,2.61-.008l16.53,13.611a1.009,1.009,0,0,1,.17,1.11,1.516,1.516,0,0,1-1.419.821H994.6a2.66,2.66,0,0,0-2.78,2.512v3.309a.639.639,0,1,0,1.278,0v-3.309a1.39,1.39,0,0,1,1.5-1.234h3.917a2.792,2.792,0,0,0,2.586-1.576,2.291,2.291,0,0,0-.413-2.518.666.666,0,0,0-.071-.068l-16.592-13.661a3.045,3.045,0,0,0-4.2.017l-16.57,13.644a.731.731,0,0,0-.071.068,2.291,2.291,0,0,0-.412,2.518A2.794,2.794,0,0,0,965.356,725.487Z" transform="translate(-13.553 0)"/><path class="a" d="M1045.513,753.331a3.166,3.166,0,0,1-.4-4.243,3.214,3.214,0,0,0-2.312-3.064,3.136,3.136,0,0,0,.221-1.156,3.22,3.22,0,0,0-3.148-3.2c-.063,0-.125.005-.188.01a3.05,3.05,0,0,0,.021-.36,3.221,3.221,0,0,0-3.149-3.2,3.143,3.143,0,0,0-1.163.256,3.234,3.234,0,0,0-2.984-2.19,3.162,3.162,0,0,0-1.733.565,3.239,3.239,0,0,0-2.893-1.944l-.109.005-.142-.005a3.06,3.06,0,0,1-4.623,1.379,3.046,3.046,0,0,1-4.148,1.934,3.216,3.216,0,0,0-3.118,3.2,2.947,2.947,0,0,0,.021.361q-.107-.009-.217-.012a3.186,3.186,0,0,0-2.3,5.315.639.639,0,1,0,.955-.85,1.908,1.908,0,0,1,1.349-3.187,1.873,1.873,0,0,1,.9.262.639.639,0,0,0,.864-.889,1.881,1.881,0,0,1-.29-1,1.924,1.924,0,0,1,1.84-1.917,1.89,1.89,0,0,1,1.243.511.633.633,0,0,0,.7.091.662.662,0,0,0,.369-.619,1.922,1.922,0,0,1,1.84-1.917,1.9,1.9,0,0,1,1.6.955.639.639,0,0,0,1.19-.348.232.232,0,0,0-.008-.069h0a1.924,1.924,0,0,1,1.837-1.917l.1,0a.588.588,0,0,0,.094,0l.065,0a1.923,1.923,0,0,1,1.872,1.873c0,.027-.01.1-.011.125a.639.639,0,0,0,1.191.336,1.891,1.891,0,0,1,1.57-.955,1.923,1.923,0,0,1,1.875,1.857.944.944,0,0,0-.009.1.638.638,0,0,0,1.07.492,1.874,1.874,0,0,1,1.211-.51,1.929,1.929,0,0,1,1.871,1.917,1.891,1.891,0,0,1-.289,1,.639.639,0,0,0,.864.888,1.859,1.859,0,0,1,.87-.262,1.908,1.908,0,0,1,1.378,3.187.639.639,0,0,0,.558,1.059l.1-.015a.394.394,0,0,0,.052-.011,1.929,1.929,0,0,1,1.871,1.917,1.906,1.906,0,0,1-.727,1.491.64.64,0,0,0,.1,1.064,1.9,1.9,0,0,1-.712,3.586.639.639,0,0,0-.3,1.167,1.91,1.91,0,0,1-.94,3.5.639.639,0,0,0-.534.916,1.9,1.9,0,0,1,.2.827,1.916,1.916,0,0,1-1.665,1.889.64.64,0,0,0-.52.426,1.789,1.789,0,0,1-2.964.8,15.44,15.44,0,0,0,1.7-4.984.622.622,0,0,0,.068-.178c.01-.05.023-.071.252-.232a3.112,3.112,0,0,0,1.375-2.093c.5-2.082-.052-2.968-.6-3.344a1.553,1.553,0,0,0-1.5-.1,2.305,2.305,0,0,1-.486-.583,3.2,3.2,0,0,1,.135-2.805.639.639,0,0,0-.708-.922,2.475,2.475,0,0,1-1.7-.2,2.747,2.747,0,0,1-1.3-2.105.639.639,0,0,0-1.268-.053,1.742,1.742,0,0,1-3.3.491.639.639,0,0,0-.453-.346.629.629,0,0,0-.55.153,2.743,2.743,0,0,1-2.259.651,2.594,2.594,0,0,1-1.487-.955.639.639,0,0,0-1.147.419,2.446,2.446,0,0,1-.947,2,2.187,2.187,0,0,1-1.528.3.638.638,0,0,0-.714.83,2.805,2.805,0,0,1-.128,2.085,2.7,2.7,0,0,1-.976,1.074,1.558,1.558,0,0,0-1.562.073c-.552.377-1.106,1.262-.605,3.343a3.112,3.112,0,0,0,1.375,2.094.965.965,0,0,1,.235.191s0,.008,0,.013a15.471,15.471,0,0,0,1.783,5.288,1.867,1.867,0,0,1-1.093.4,1.92,1.92,0,0,1-1.758-1.3.65.65,0,0,0-.6-.431.9.9,0,0,1-.839-.6.639.639,0,0,0-1.22.385,2.126,2.126,0,0,0,1.6,1.438,3.215,3.215,0,0,0,2.81,1.787,3.181,3.181,0,0,0,1.781-.6,8.587,8.587,0,0,0,14.947-.086,6.608,6.608,0,0,0,7.1-4.208,3.038,3.038,0,0,0-.064-.622,18.621,18.621,0,0,1,3.379-7.682Zm-17.921,15.635c-2.606,0-5-1.573-6.639-4.108a.63.63,0,0,0-.242-.482c-.019-.014-.042-.018-.062-.03a14.153,14.153,0,0,1-1.7-4.943.5.5,0,0,0,0-.063,1.6,1.6,0,0,0-.77-1.032,1.876,1.876,0,0,1-.868-1.347c-.315-1.311-.1-1.866.082-1.988a.352.352,0,0,1,.377.054,1.629,1.629,0,0,0,.961.013,3.935,3.935,0,0,0,2.005-3.892,3.244,3.244,0,0,0,2.885-2.339,3.688,3.688,0,0,0,1.279.532,3.834,3.834,0,0,0,2.783-.519,3.038,3.038,0,0,0,2.887,1.041,3.005,3.005,0,0,0,1.649-.924,3.545,3.545,0,0,0,2.963,1.9,3.966,3.966,0,0,0,.272,3.009,3.623,3.623,0,0,0,1.062,1.183,1.15,1.15,0,0,0,.947-.007.355.355,0,0,1,.378-.054c.178.122.4.678.081,1.988a1.876,1.876,0,0,1-.868,1.347,1.764,1.764,0,0,0-.683.779.621.621,0,0,0-.128.281C1035.406,764.93,1031.768,768.967,1027.593,768.967Z" transform="translate(-31.511 -10.098)"/><path class="a" d="M931.979,770.857a12.276,12.276,0,0,0,5.811,1.5q.418,0,.835-.031a12.119,12.119,0,0,0,1.6-.236,7.819,7.819,0,0,0,7.906,0,11.516,11.516,0,0,0,1.6.24c.287.022.568.031.844.031a12.263,12.263,0,0,0,5.8-1.5.639.639,0,0,0,.212-.94,13.024,13.024,0,0,1-1.765-3.324,12.8,12.8,0,0,1-.738-4.062c0-.019.008-.038.011-.057a.57.57,0,0,0-.007-.132.638.638,0,0,0,.1-.151,14.573,14.573,0,0,0,1.289-6.561,11.031,11.031,0,0,0-.547-3.155,9.4,9.4,0,0,0-10.854-6.558,10.378,10.378,0,0,0-5.109,2.421,6.972,6.972,0,0,0-2.912.679,7.432,7.432,0,0,0-3.667,4.111c-1.167,2.887-.439,6.471,1.888,9.414a12.8,12.8,0,0,1-.737,4.053,12.992,12.992,0,0,1-1.765,3.322.64.64,0,0,0,.213.941Zm12.194,1.024c-4.131,0-7.731-3.954-8.618-9.424a15.53,15.53,0,0,1,4.46-7.893.6.6,0,0,0,.187.095,20.141,20.141,0,0,0,6.579,5.649,2.41,2.41,0,0,0-.593.367.639.639,0,0,0,.844.96,1.012,1.012,0,0,1,.644-.247,1.1,1.1,0,0,1,.672.248.64.64,0,0,0,.9-.059.576.576,0,0,0,.068-.118,20.845,20.845,0,0,0,3.478.975C951.916,767.917,948.31,771.882,944.173,771.882Zm10.947-1.829a10.76,10.76,0,0,1-5.3,1c-.061,0-.119-.015-.179-.02a12.77,12.77,0,0,0,3.593-5.261c.107.424.23.842.377,1.253A14.247,14.247,0,0,0,955.119,770.053Zm-21.554-16.447a6.2,6.2,0,0,1,3.033-3.438,5.647,5.647,0,0,1,2.594-.554.633.633,0,0,0,.439-.166,9.12,9.12,0,0,1,4.643-2.271,8.119,8.119,0,0,1,9.435,5.7,9.706,9.706,0,0,1,.481,2.808,12.918,12.918,0,0,1-.572,4.349l-2.7-2.7a.639.639,0,0,0-.9.9l2.916,2.916a19.451,19.451,0,0,1-7.306-3.047,19.235,19.235,0,0,1-4.927-4.927.637.637,0,0,0-.2-.185,5.087,5.087,0,0,1-.515-1.648.639.639,0,1,0-1.266.178,6.734,6.734,0,0,0,.341,1.364c.073.2.164.389.255.579a16.687,16.687,0,0,0-4.669,7.415A8.022,8.022,0,0,1,933.565,753.606Zm1.168,13.418c.148-.412.27-.831.377-1.255a12.757,12.757,0,0,0,3.595,5.262c-.06.006-.118.016-.178.02a10.751,10.751,0,0,1-5.3-1A14.151,14.151,0,0,0,934.734,767.024Z" transform="translate(-2.396 -14.055)"/><path class="a" d="M951.562,779.553a3.133,3.133,0,0,1-4.1,0,.639.639,0,0,0-.772,1.019,4.391,4.391,0,0,0,5.646,0,.639.639,0,1,0-.771-1.019Z" transform="translate(-7.734 -26.195)"/><path class="a" d="M935.262,791.619c.052,4.031,4.644,7.375,6.382,7.375,1.111,0,3.116-1.275,4.468-2.844a7.177,7.177,0,0,0,1.914-4.648,9.815,9.815,0,0,1,4.685,2.532.639.639,0,1,0,.86-.947c-2.446-2.224-4.9-2.975-6.26-2.911a.638.638,0,0,0-.61.732,5.637,5.637,0,0,1-1.556,4.406,6.968,6.968,0,0,1-3.5,2.4c-1,0-5.1-2.769-5.1-6.165a4.346,4.346,0,0,1,.048-.64.64.64,0,0,0-.187-.554.629.629,0,0,0-.56-.17A13.3,13.3,0,0,0,925,802.317a.64.64,0,0,0,.232.542,25.832,25.832,0,0,0,6.255,3.781.615.615,0,0,0,.12.052,25.985,25.985,0,0,0,10.058,2.036c.72,0,1.446-.03,2.161-.089a.639.639,0,0,0-.105-1.274c-.679.056-1.371.085-2.056.085a24.7,24.7,0,0,1-9.231-1.8v-5.158a.639.639,0,0,0-1.278,0v4.6a24.52,24.52,0,0,1-4.851-3.01A12.069,12.069,0,0,1,935.262,791.619Z" transform="translate(0 -30.074)"/><path class="a" d="M946.794,769.668a.639.639,0,0,0-.061-.9,2.392,2.392,0,0,0-1.533-.564,2.287,2.287,0,0,0-1.468.565.639.639,0,0,0,.843.961,1.017,1.017,0,0,1,.644-.248,1.056,1.056,0,0,1,.673.249A.639.639,0,0,0,946.794,769.668Z" transform="translate(-6.68 -22.146)"/><path class="a" d="M1031.518,771.922a.639.639,0,0,0,.421-1.12,2.254,2.254,0,0,0-1.533-.564,2.311,2.311,0,0,0-1.468.566.639.639,0,1,0,.844.96,1.013,1.013,0,0,1,.644-.247,1.205,1.205,0,0,1,.672.249A.639.639,0,0,0,1031.518,771.922Z" transform="translate(-37.427 -22.88)"/><path class="a" d="M1041.083,770.187h-.027a2.209,2.209,0,0,0-1.525.621.639.639,0,1,0,.892.915.883.883,0,0,1,.644-.258.937.937,0,0,1,.621.256.639.639,0,0,0,.9-.911A2.2,2.2,0,0,0,1041.083,770.187Z" transform="translate(-41.258 -22.862)"/><path class="a" d="M1036.527,781.18a3.133,3.133,0,0,1-4.1,0,.639.639,0,0,0-.773,1.019,4.392,4.392,0,0,0,5.647,0,.639.639,0,0,0-.771-1.019Z" transform="translate(-38.393 -26.782)"/><path class="a" d="M1034.534,790.177a.639.639,0,0,0-.61.732,5.633,5.633,0,0,1-1.556,4.406,6.97,6.97,0,0,1-3.5,2.4c-1,0-5.1-2.769-5.1-6.165a4.352,4.352,0,0,1,.048-.64.64.64,0,0,0-.188-.553.629.629,0,0,0-.559-.169,13.081,13.081,0,0,0-6.634,3.324.639.639,0,1,0,.875.931,11.759,11.759,0,0,1,5.18-2.822c.052,4.03,4.643,7.373,6.381,7.373,1.111,0,3.116-1.276,4.468-2.844a7.181,7.181,0,0,0,1.913-4.636,12.471,12.471,0,0,1,9,10.568,24.554,24.554,0,0,1-4.845,3.007V800.5a.639.639,0,1,0-1.278,0v5.156a24.677,24.677,0,0,1-9.231,1.8,24.95,24.95,0,0,1-2.888-.167.639.639,0,0,0-.148,1.27,26.349,26.349,0,0,0,3.036.176,25.963,25.963,0,0,0,10.02-2.022.624.624,0,0,0,.194-.084,25.824,25.824,0,0,0,6.213-3.763.64.64,0,0,0,.232-.542C1044.944,794.2,1037.452,790.051,1034.534,790.177Z" transform="translate(-32.92 -30.075)"/><path class="a" d="M988.248,795.745l-.052-.006-.036-.006h0c-.07-.013-.137-.024-.21-.034l-.2-.025-.095.049a.634.634,0,0,0-.256.134h0l-4.924,2.572a10.63,10.63,0,0,1-2.278.252h-.166a11.017,11.017,0,0,1-2.372-.268l-3.058-1.17a11.13,11.13,0,0,1-1.949-1.385l-.223-.2-.3.043c-.042.005-.086.014-.133.023l-.125.021c-.485.085-.968.192-1.446.319a17.405,17.405,0,0,0-1.85.611c-.205.08-.41.16-.612.248q-.373.161-.736.339l-.128.065a17.434,17.434,0,0,0-8.035,8.232l-.048.1c-.121.263-.238.529-.346.8-.062.154-.118.311-.176.467q-.188.511-.345,1.035c-.073.242-.144.484-.206.73-.044.175-.082.352-.121.529q-.094.423-.166.851c-.025.15-.052.3-.073.449-.063.442-.114.885-.143,1.331l-.021.318.241.208a34.006,34.006,0,0,0,8.848,5.524.579.579,0,0,0,.1.045,34.151,34.151,0,0,0,13.346,2.715h.075c.049,0,.1,0,.146,0,.006,0,.012,0,.019,0s.015,0,.023,0a34.156,34.156,0,0,0,13.973-3.109.532.532,0,0,0,.07-.032,33.877,33.877,0,0,0,8.19-5.318l.24-.211-.024-.318A17.5,17.5,0,0,0,988.248,795.745ZM973.41,798.02c.079.05.155.106.235.154q.459.278.938.515c.065.031.132.057.2.088.256.121.515.236.779.339.117.045.236.082.355.125.217.077.435.153.656.217.134.039.27.072.406.107.21.054.42.1.633.147.1.019.189.039.285.056l-4.643,2.376-.405-4.5C973.029,797.78,973.22,797.9,973.41,798.02Zm6.148,21.352c-.355,0-.711-.008-1.066-.024-.153-.007-.306-.022-.458-.031-.334-.019-.667-.037-1-.067-.181-.016-.361-.041-.542-.06-.3-.032-.6-.061-.9-.1-.2-.026-.391-.061-.586-.091-.283-.043-.567-.083-.849-.134-.2-.036-.4-.081-.6-.121-.273-.054-.547-.105-.819-.167-.2-.045-.4-.1-.6-.149-.268-.065-.537-.128-.8-.2-.2-.054-.4-.117-.6-.176-.263-.077-.527-.151-.787-.234-.2-.064-.4-.137-.6-.205-.256-.087-.513-.172-.767-.266-.2-.073-.4-.155-.6-.233-.175-.068-.351-.137-.525-.208v-7.3a.639.639,0,0,0-1.278,0v6.744c-.087-.04-.176-.077-.262-.118-.2-.093-.392-.194-.588-.291-.236-.118-.472-.233-.706-.356-.2-.1-.388-.213-.582-.32-.228-.127-.457-.251-.682-.383-.193-.113-.382-.233-.573-.35-.221-.136-.443-.27-.661-.41-.19-.123-.375-.252-.562-.378-.214-.144-.428-.288-.639-.437-.186-.132-.368-.271-.552-.408-.206-.153-.412-.3-.615-.463-.183-.142-.361-.291-.541-.438-.153-.125-.307-.249-.458-.377.029-.341.06-.681.109-1.016.013-.084.03-.166.044-.249q.077-.468.18-.926c.033-.148.067-.3.1-.442.063-.251.136-.5.211-.745.038-.122.07-.246.11-.367.055-.164.118-.325.178-.486s.111-.3.17-.452q.153-.377.323-.745c.012-.026.026-.052.038-.079a16.323,16.323,0,0,1,2.387-3.672c0,.013-.008.023-.008.035v5.6a.639.639,0,1,0,1.278,0v-5.6a.579.579,0,0,0-.743-.618,16.334,16.334,0,0,1,5.423-3.8c.051-.022.1-.042.152-.062.245-.1.492-.2.744-.291a16.116,16.116,0,0,1,1.977-.555l.085-.019.548,6.071a.639.639,0,0,0,.328.5.638.638,0,0,0,.6.009l6.4-3.277v1.045l.166-.087Zm3.358-19.732a12.008,12.008,0,0,0,4.438-2.1l-.415,4.6-4.453-2.28Zm11.7,16.287V809.6a.639.639,0,1,0-1.278,0v6.927a32.864,32.864,0,0,1-12.5,2.831V800.727l.262-.137,6.1,3.124a.639.639,0,0,0,.928-.511l.547-6.057.105.024c.206.046.415.083.618.137.239.063.47.144.7.218.191.061.386.112.574.179.239.085.469.187.7.283.175.072.355.135.527.213.247.111.484.24.724.363.149.077.3.145.451.226.254.141.5.3.745.453.123.077.251.146.371.226.245.163.478.341.713.516.112.084.231.16.341.247.229.181.446.376.665.568.106.093.218.179.321.275.223.206.432.426.642.644.09.093.185.178.272.273.043.047.081.1.124.146a.623.623,0,0,0-.109.337v5.6a.639.639,0,1,0,1.278,0v-4.461c.047.066.1.13.141.2s.111.148.163.226c.189.286.362.582.533.881.046.079.1.153.141.233.157.284.3.578.437.873.047.1.1.195.148.3.132.295.247.6.363.9.041.107.09.21.128.318.125.349.231.707.332,1.066.019.067.043.132.062.2.094.351.169.709.239,1.069.015.08.038.157.053.238q.12.662.185,1.342A32.628,32.628,0,0,1,994.616,815.927Z" transform="translate(-11.699 -32.053)"/></g></svg>