<svg xmlns="http://www.w3.org/2000/svg" width="80.783" height="87" viewBox="0 0 80.783 87"><defs><style>.a{fill:#fff;}</style></defs><g transform="translate(-1130.154 -707.827)"><path class="a" d="M1220.9,785.143c-19.386-2.942-30.073,4.484-35.625,11.238a36.592,36.592,0,0,0-7.426,15.39c-5.34,2.214-9.548,3.621-11.076,4.116a.706.706,0,0,0,.219,1.379.729.729,0,0,0,.212-.028c1.563-.509,5.9-1.959,11.394-4.244,2.376,1.782,6.479,2.857,11.274,2.857a35.912,35.912,0,0,0,14.025-2.928c6.471-2.8,17.363-10.043,17.6-27.067l.014-.622Zm-17.561,26.48c-8.827,3.819-18.679,3.409-23.191.714,7.2-3.084,16.012-7.49,23.205-13a.708.708,0,0,0,.134-.99.718.718,0,0,0-1-.134c-7.129,5.467-15.9,9.838-23.043,12.886a36.174,36.174,0,0,1,6.959-13.869c7.624-9.244,18.955-12.872,33.666-10.779C1219.588,802.237,1209.41,808.992,1203.335,811.623Z" transform="translate(-10.574 -22.44)"/><path class="a" d="M1163.947,783.551a26.071,26.071,0,0,1-4.279-2.176c-2.313-1.471-2.723-2.249-2.872-2.56-.665-1.45.163-1.966-.219-4.328-.424-2.624-1.655-3.169-1.132-4.5a18.577,18.577,0,0,0,1.181-2.567,1.4,1.4,0,0,0,.014-1.068c-.113-.219-.382-.332-.813-.651-.821-.6-.127-1.45-.248-2.893s.566-1.054.431-2.666-.078-.941-.919-1.761a2.787,2.787,0,0,0-1.033-.778.946.946,0,0,0-.318-.057c-.2,0-.332.064-.474.064a.44.44,0,0,1-.219-.057c-.41-.226-.311-.863-.5-1.825a3.924,3.924,0,0,0-1.061-2.348,1.255,1.255,0,0,0-.827-.262c-.318,0-.693.064-1.2.064a5.491,5.491,0,0,1-.566-.028c-1.768-.163-1.846-.934-3.275-1.153a3.715,3.715,0,0,0-.608-.049c-1.712,0-2.716,1.174-3.862,1.174a1.617,1.617,0,0,1-.566-.1c-.665-.24-1.485-.983-1.987-3.267-1-1.252-2.4-3.7-1.605-4.845.446-.637,1.1-.219,2.171-.941,1.217-.813.8-1.641,2.362-3.565,1.252-1.528,2.277-1.938,2.786-1.938a.586.586,0,0,1,.241.042.248.248,0,0,0,.042.007h.007c.269-.035.339-1.273.354-2.652.1-.219.262-.5.474-.509h.014c.269,0,.382.438.757.608a.772.772,0,0,0,.325.071,1.916,1.916,0,0,0,.905-.311c1.9-1.047,2.886-.46,4.739-1.846a5.985,5.985,0,0,0,2.645-3.593c.184-1.139-.276-1.528,0-2.956.255-1.365.764-1.506,1.132-2.829a5.784,5.784,0,0,0-.127-3.854c-1.125-2.341-4.314-2.56-4.534-2.567-.714-1.054-1.429-2.115-2.143-3.169a37.32,37.32,0,0,1,46.806,5.913,23.159,23.159,0,0,1-2.355,1.316,1.846,1.846,0,0,1-.728.184.674.674,0,0,1-.5-.184c-.417-.424.446-3.1-1.1-3.268-.375-.035-.926-.064-1.584-.064-2.093,0-5.255.3-7.037,1.542-2.32,1.641-3.982,3.968-3.664,4.35.3.361.672.467.672,1.209,0,.559.375,1.535-.042,2.27-.262.177-.665.495-1.118.757a2.326,2.326,0,0,1-.233.106l.014.014a2.488,2.488,0,0,1-1.089.3,1.736,1.736,0,0,1-1.273-.587c-.149-.163-.071-.516-.1-.82v-.014c-.12-1-.233-2.313-.318-2.709-.092-.481-.58-1.669-1.054-1.669a.289.289,0,0,0-.135.028c-.516.269-2.44,2.638-3.154,2.857-.736.205-1.662.057-1.712.686-.05.6.806,2.235,1.747,2.235a.7.7,0,0,0,.12-.014c.884-.141,2.03-.934,2.582-.934a.342.342,0,0,1,.156.028,2.94,2.94,0,0,1,.835,2.284c-.1.686.212,1.209-1.2,1.535a2.616,2.616,0,0,1-.566.064c-.757,0-1.365-.311-1.818-.311a.614.614,0,0,0-.523.248c-.516.686-1.506,2.369-1.351,2.956.134.453,1.422.771,2.2.976a8.861,8.861,0,0,0,3.826-.919,10.673,10.673,0,0,1,3.826-1.641c.212,0,1.245.078,2.44.106a4.59,4.59,0,0,0,2.751,1.74,6.066,6.066,0,0,0,1.047.1,2.912,2.912,0,0,0,1.1-.184.887.887,0,0,1,1.174.375,4.035,4.035,0,0,0,.46.721c.318.389.573.509.764.509a.521.521,0,0,0,.438-.3s-.587-1.217.191-1.217a2.822,2.822,0,0,1,1.818.686,3.416,3.416,0,0,0,1.662,1.33,1.222,1.222,0,0,1,.679,1.422,52.568,52.568,0,0,1-5.545.4,10.614,10.614,0,0,1-1.931-.141,6.1,6.1,0,0,1-3.982-2.327c-.955-1.019-.884-2.037-2.079-2.037a4.311,4.311,0,0,0-1.132.2c-2.44.686-2.6,1.209-4.159,1.521a19.277,19.277,0,0,0-2.808.905c-.028.014-.064.014-.092.028-1.061.339-2.532.615-2.949,1.45a18.12,18.12,0,0,1-1.033,2.327c-.672,1.11-2.292,2.016-2.341,2.546a43.232,43.232,0,0,0,0,7.4c.361,2.228,1.393,2.391,2.482,3.805,1,1.315,1.485,1.648,2.631,1.648.1,0,.212,0,.325-.007,1.4-.042,2.553-.629,4.512-.792.891-.071,1.662-.184,2.3-.184a1.855,1.855,0,0,1,1.747.771c.728,1.11.2,2.532,1.089,3.543.647.74,1.546.358,2,.978q.646-.3,1.32-.578a2.628,2.628,0,0,0-1.917-1.27,1.115,1.115,0,0,1-.318-.085,1.946,1.946,0,0,1-.269-1.054,5.053,5.053,0,0,0-.7-2.327,3.327,3.327,0,0,0-2.949-1.422,15.385,15.385,0,0,0-1.549.113c-.276.028-.559.057-.863.085a16.659,16.659,0,0,0-2.723.481,8.5,8.5,0,0,1-1.74.3c-.092,0-.177.007-.262.007-.552,0-.665,0-1.492-1.082a9.8,9.8,0,0,0-1.11-1.209,2.772,2.772,0,0,1-1.089-1.952,39.434,39.434,0,0,1-.014-6.719c.12-.12.3-.276.446-.4a8.373,8.373,0,0,0,1.719-1.853,7.187,7.187,0,0,0,.757-1.613,5.194,5.194,0,0,1,.311-.778,5.548,5.548,0,0,1,1.506-.573c.212-.064.424-.12.615-.184.007-.007.021-.007.035-.014s.057-.014.092-.028c.573-.177.919-.318,1.2-.431a6.338,6.338,0,0,1,1.407-.424,7.7,7.7,0,0,0,2.058-.714,12.5,12.5,0,0,1,2.214-.835,3.412,3.412,0,0,1,.679-.134c.05.078.113.184.163.276a7.136,7.136,0,0,0,.927,1.3,7.507,7.507,0,0,0,4.76,2.758,12.128,12.128,0,0,0,2.207.163,54.856,54.856,0,0,0,5.729-.41,1.441,1.441,0,0,0,1.209-1.089,2.61,2.61,0,0,0-1.528-3.091,2.9,2.9,0,0,1-.912-.622c-.544-1.125-2.5-1.5-3.112-1.5a1.844,1.844,0,0,0-1.139.368,2.319,2.319,0,0,0-1.492-.545,2.373,2.373,0,0,0-.962.205,1.647,1.647,0,0,1-.538.071,5.3,5.3,0,0,1-.813-.078,3.183,3.183,0,0,1-1.888-1.259,1.432,1.432,0,0,0-1.061-.5c-.736-.021-1.415-.057-1.86-.078-.3-.014-.523-.028-.615-.028a11.417,11.417,0,0,0-4.654,1.9,7.266,7.266,0,0,1-2.871.644c-.191-.05-.446-.12-.679-.191a9.977,9.977,0,0,1,.566-1.019,5.6,5.6,0,0,0,1.478.226,4.243,4.243,0,0,0,.891-.1c1.966-.453,2.249-1.577,2.277-2.511a1.178,1.178,0,0,1,.014-.219,1.546,1.546,0,0,0,.021-.269,2.93,2.93,0,0,0,.863.127,3.871,3.871,0,0,0,1.733-.446l.148-.085c.05-.021.092-.05.141-.071a10.7,10.7,0,0,0,.983-.658c.085-.064.163-.12.226-.163a1.426,1.426,0,0,0,.438-.481,3.865,3.865,0,0,0,.283-2.631,3.326,3.326,0,0,1-.049-.347,2.507,2.507,0,0,0-.481-1.57,12.47,12.47,0,0,1,2.865-2.808c1.351-.948,4.095-1.287,6.21-1.287.4,0,.785.014,1.11.035.021.24.014.58.014.792a2.657,2.657,0,0,0,.537,2.072,2.119,2.119,0,0,0,1.528.615,3.224,3.224,0,0,0,1.365-.332,21.8,21.8,0,0,0,2.695-1.535c.05.05.1.106.142.156a36.649,36.649,0,0,1,9.159,22.279c.057.764.085,1.514.085,2.284,0,.255,0,.509-.014.764v.007a7.176,7.176,0,0,1-3.6.82c-.439,0-.785-.028-.969-.042a1.473,1.473,0,0,1-.665-.127,3.059,3.059,0,0,1-.226-.785,9.285,9.285,0,0,0-.424-1.485c-.127-.339-.226-.665-.325-.976a6.719,6.719,0,0,0-2.8-4.01,1.424,1.424,0,0,0-1.5-.127,1.432,1.432,0,0,0-.778,1.117c-.75.736-.594,2.306.106,6.981a4.278,4.278,0,0,0,4.244,3.72c1.294.05,2.765.12,3.734.184a9.89,9.89,0,0,1-1.11,2.178,22.933,22.933,0,0,1-1.689,2.171c.627-.03,1.267-.049,1.916-.06.342-.432.664-.866.961-1.3,1.294-1.917,1.924-4.123,1.294-4.286s-5.078-.318-5.078-.318a2.86,2.86,0,0,1-2.85-2.49c-1.252-8.353-.1-4.548-.1-6.613,2.079,1.535,1.959,2.589,2.638,4.343.446,1.16.368,2.178.962,2.772a2.348,2.348,0,0,0,1.591.552c.2.014.573.042,1.068.042a9.506,9.506,0,0,0,3.536-.615,37.1,37.1,0,0,1-1.386,7.925q.718.016,1.454.046a38.609,38.609,0,0,0,1.389-8.862c.028-.5.035-1.011.035-1.521,0-.488-.007-.962-.035-1.443v-.007c-.007-.311-.028-.622-.05-.934-.007-.1-.014-.205-.021-.3v-.014a38.077,38.077,0,0,0-9.491-22.795c-.325-.375-.665-.75-1.011-1.11a38.715,38.715,0,0,0-48.766-6.259c-.41.255-.813.523-1.217.8-.311.219-.622.453-.934.679s-.608.446-.934.679a38.529,38.529,0,0,0-10.213,11.847v.007c-.007.014-.021.028-.028.042a36.342,36.342,0,0,0-1.634,3.289l-.021.042a37.789,37.789,0,0,0-3.013,11.6c-.028.29-.057.573-.078.863-.085.983-.127,2-.127,3.02a38.743,38.743,0,0,0,15.5,31c0,.007,0,.007.007.007a38.556,38.556,0,0,0,17.971,7.414C1163.676,784.785,1163.771,784.271,1163.947,783.551Zm9.937-56.571a3.962,3.962,0,0,0-1.6.467,15.2,15.2,0,0,0,1.832-1.712c.042.3.1.849.141,1.28A2.171,2.171,0,0,0,1173.884,726.98Zm-39.218,4.724a.1.1,0,0,0,.014-.042,35.179,35.179,0,0,1,1.591-3.19c.007-.014.021-.028.021-.042a37.1,37.1,0,0,1,9.81-11.387c.318-.219.622-.453.934-.679s.608-.446.905-.658l.693,1.018,1.464,2.164a1.467,1.467,0,0,0,1.11.63c.028,0,2.546.156,3.317,1.754a4.051,4.051,0,0,1,.035,2.85,3.921,3.921,0,0,1-.431,1,6.133,6.133,0,0,0-.757,4.1,2.563,2.563,0,0,1,.021.835,4.613,4.613,0,0,1-2.051,2.652l-.035.021a4.33,4.33,0,0,1-2.023.849,8.605,8.605,0,0,0-2.574.905,1.749,1.749,0,0,0-1.266-.566c-.021,0-.057.007-.078.007a1.959,1.959,0,0,0-1.719,1.358,1.329,1.329,0,0,0-.127.573c-.007.587-.021,1.011-.042,1.316a6.457,6.457,0,0,0-3.062,2.334,9.377,9.377,0,0,0-1.485,2.454c-.233.531-.29.637-.566.828a1.787,1.787,0,0,1-.764.276,2.484,2.484,0,0,0-1.789,1.033,3.691,3.691,0,0,0-.163,3.381,15.313,15.313,0,0,0-2.589-1.061,11.614,11.614,0,0,1-1.266-3.8A36.323,36.323,0,0,1,1134.666,731.7Zm-3.1,14.966c.17.325.354.651.559.969,0,0,.559.149,1.273.41a9.719,9.719,0,0,1,2.27,1.132,4.675,4.675,0,0,1,1.888,3.084c0,1.351-.58,1.846-.375,3.664.106.934.311.877.375,1.726.127,1.528-.481,2.32-.75,3.6a8.389,8.389,0,0,0,.375,3.982,14.116,14.116,0,0,0,.693,2.15A37.216,37.216,0,0,1,1131.569,746.67Zm15.348,30.115a25.106,25.106,0,0,1-3.211-3.218c-.021-.021-.035-.042-.057-.064-.955-1.026-4.145-4.668-5.064-8.6-.431-1.846-.559-2.468-.375-3.352a8.6,8.6,0,0,1,.3-1,6.742,6.742,0,0,0,.481-3.006,4.286,4.286,0,0,0-.255-1.2,2.247,2.247,0,0,1-.127-.58,4.334,4.334,0,0,1,.141-1.761c.035-.134.064-.269.1-.417a3.4,3.4,0,0,0,1.238.792,3.054,3.054,0,0,0,1.061.191,4.807,4.807,0,0,0,2.164-.651,3.863,3.863,0,0,1,1.7-.531,3.465,3.465,0,0,1,.382.028,2.3,2.3,0,0,1,.905.361,5.425,5.425,0,0,0,2.461.813c.233.021.467.028.7.028.332,0,.615-.021.842-.035a3.123,3.123,0,0,1,.347-.021,4.1,4.1,0,0,1,.488,1.443c.05.247.071.474.1.693a2.481,2.481,0,0,0,1.125,2.115,1.857,1.857,0,0,0,.905.233,1.99,1.99,0,0,0,.389-.042c.078.064.2.184.431.4a5.966,5.966,0,0,0,.453.4c.014.134.028.3.042.46.035.431,0,.5-.085.665a3.4,3.4,0,0,0-.347,2,4.51,4.51,0,0,1-.078,1.075,2.644,2.644,0,0,0,.905,2.857c.092.064.184.127.262.184a8.041,8.041,0,0,1-.7,1.542,6.756,6.756,0,0,0-.438.877,3.552,3.552,0,0,0,.332,3.063,7.555,7.555,0,0,1,.721,2.185,6.244,6.244,0,0,1,.014,1.995,4.441,4.441,0,0,0,.325,2.709c.311.665.976,1.634,3.4,3.168.028.014.05.035.078.05A37.087,37.087,0,0,1,1146.916,776.785Z"/></g></svg>