<svg xmlns="http://www.w3.org/2000/svg" width="84" height="85.657" viewBox="0 0 84 85.657"><defs><style>.a{fill:#fff;}</style></defs><g transform="translate(-384 -2791)"><g transform="translate(384 2791)"><g transform="translate(14.181 84.296)"><path class="a" d="M1360.5,833.736h-52.367a.681.681,0,1,1,0-1.361H1360.5a.681.681,0,1,1,0,1.361Z" transform="translate(-1307.452 -832.375)"/></g><g transform="translate(0 78.369)"><path class="a" d="M1369.933,825.028h-82.639a.681.681,0,0,1,0-1.361h82.639a.681.681,0,0,1,0,1.361Z" transform="translate(-1286.614 -823.667)"/></g><g transform="translate(28.931 37.799)"><g transform="translate(0 23.936)"><path class="a" d="M1341.752,808.345c-6.275,0-12.627-1.473-12.627-4.287V799.9a.681.681,0,1,1,1.361,0v4.085c0,.017,0,.035,0,.052s0,.027,0,.041c.061,1.192,4.436,2.9,11.265,2.9,6.877,0,11.265-1.733,11.265-2.926l0-4.108a.681.681,0,1,1,1.361,0v4.063C1354.378,806.872,1348.026,808.345,1341.752,808.345Z" transform="translate(-1329.125 -799.224)"/></g><path class="a" d="M1341.752,772.628c-6.275,0-12.627-1.473-12.627-4.287s6.352-4.288,12.627-4.288,12.626,1.473,12.626,4.288S1348.026,772.628,1341.752,772.628Zm0-7.214c-6.877,0-11.266,1.733-11.266,2.927s4.388,2.926,11.266,2.926,11.265-1.733,11.265-2.926S1348.629,765.413,1341.752,765.413Z" transform="translate(-1329.125 -764.052)"/><g transform="translate(0 5.48)"><path class="a" d="M1341.752,781.227c-6.275,0-12.627-1.473-12.627-4.287v-4.155a.681.681,0,1,1,1.361,0v4.087c0,.018,0,.035,0,.053s0,.026,0,.04c.062,1.192,4.437,2.9,11.265,2.9,6.877,0,11.265-1.733,11.265-2.926l0-4.109a.681.681,0,1,1,1.361,0v4.034c0,.027,0,.059,0,.075C1354.378,779.754,1348.026,781.227,1341.752,781.227Z" transform="translate(-1329.125 -772.105)"/></g><g transform="translate(0 11.541)"><path class="a" d="M1341.752,790.131c-6.275,0-12.627-1.473-12.627-4.288v-4.152a.681.681,0,1,1,1.361,0v4.089a.659.659,0,0,1,0,.089c.065,1.192,4.438,2.9,11.265,2.9,6.877,0,11.265-1.733,11.265-2.927l0-4.107a.681.681,0,1,1,1.361,0V785.8C1354.378,788.658,1348.026,790.131,1341.752,790.131Z" transform="translate(-1329.125 -781.01)"/></g><g transform="translate(0 17.758)"><path class="a" d="M1341.752,799.267c-6.275,0-12.627-1.475-12.627-4.293v-4.148a.681.681,0,1,1,1.361,0v4.085c0,.018,0,.035,0,.053s0,.026,0,.038c.07,1.194,4.443,2.9,11.265,2.9,6.877,0,11.265-1.733,11.265-2.927l0-4.107a.681.681,0,1,1,1.361,0v4.033c0,.027,0,.058,0,.074C1354.378,797.795,1348.026,799.267,1341.752,799.267Z" transform="translate(-1329.125 -790.146)"/></g></g><g transform="translate(57.816 26.174)"><g transform="translate(0 35.606)"><path class="a" d="M1384.2,808.366c-6.275,0-12.626-1.473-12.626-4.287,0-.012,0-.027,0-.041v-4.112h1.361v4.127a.682.682,0,0,1,0,.076c0,1.143,4.391,2.875,11.267,2.875s11.266-1.733,11.266-2.926l0-4.108a.681.681,0,1,1,1.361,0v4.063C1396.823,806.893,1390.471,808.366,1384.2,808.366Z" transform="translate(-1371.57 -799.29)"/></g><path class="a" d="M1384.2,755.546c-6.275,0-12.626-1.473-12.626-4.288s6.351-4.288,12.626-4.288,12.627,1.473,12.627,4.288S1390.471,755.546,1384.2,755.546Zm0-7.215c-6.876,0-11.265,1.733-11.265,2.927s4.389,2.927,11.265,2.927,11.266-1.734,11.266-2.927S1391.074,748.331,1384.2,748.331Z" transform="translate(-1371.57 -746.97)"/><g transform="translate(0 17.553)"><path class="a" d="M1384.2,781.839c-6.275,0-12.626-1.473-12.626-4.287,0-.013,0-.026,0-.042V773.4h1.361v4.128a.652.652,0,0,1,0,.075c0,1.145,4.391,2.878,11.267,2.878s11.266-1.733,11.266-2.926l0-4.11a.681.681,0,1,1,1.361,0v4.063C1396.823,780.366,1390.471,781.839,1384.2,781.839Z" transform="translate(-1371.57 -772.762)"/></g><g transform="translate(0 11.535)"><path class="a" d="M1384.2,773c-6.275,0-12.626-1.473-12.626-4.287,0-.013,0-.027,0-.042v-4.112h1.361v4.128a.65.65,0,0,1,0,.074c0,1.145,4.391,2.877,11.267,2.877s11.266-1.733,11.266-2.926l0-4.109a.681.681,0,1,1,1.361,0v4.064C1396.823,771.524,1390.471,773,1384.2,773Z" transform="translate(-1371.57 -763.92)"/></g><g transform="translate(0 5.517)"><path class="a" d="M1384.2,764.153c-6.275,0-12.626-1.473-12.626-4.287,0-.012,0-.027,0-.041v-4.112h1.361v4.127a.719.719,0,0,1,0,.078c0,1.141,4.391,2.874,11.267,2.874s11.266-1.733,11.266-2.926l0-4.109a.681.681,0,1,1,1.361,0v4.034c0,.027,0,.059,0,.075C1396.823,762.681,1390.471,764.153,1384.2,764.153Z" transform="translate(-1371.57 -755.077)"/></g><g transform="translate(0 23.571)"><path class="a" d="M1384.2,790.681c-6.275,0-12.626-1.473-12.626-4.287,0-.012,0-.025,0-.039v-4.113h1.361v4.127c0,.022,0,.046,0,.068,0,1.151,4.39,2.884,11.266,2.884s11.266-1.733,11.266-2.926l0-4.108a.681.681,0,1,1,1.361,0v4.062C1396.823,789.208,1390.471,790.681,1384.2,790.681Z" transform="translate(-1371.57 -781.605)"/></g><g transform="translate(0 29.589)"><path class="a" d="M1384.2,799.524c-6.275,0-12.626-1.475-12.626-4.292,0-.014,0-.028,0-.043v-4.106h1.361v4.149h0c0,1.2,4.389,2.931,11.265,2.931s11.266-1.733,11.266-2.927l0-4.107a.681.681,0,1,1,1.361,0v4.062C1396.823,798.051,1390.471,799.524,1384.2,799.524Z" transform="translate(-1371.57 -790.448)"/></g></g><g transform="translate(0.046 43.976)"><g transform="translate(0 17.759)"><path class="a" d="M1299.307,808.345c-6.274,0-12.626-1.473-12.626-4.287V799.9a.681.681,0,0,1,1.361,0v4.085c0,.017,0,.035,0,.052s0,.027,0,.041c.061,1.192,4.436,2.9,11.264,2.9,6.877,0,11.265-1.733,11.265-2.926l0-4.108a.681.681,0,0,1,1.361,0v4.063C1311.933,806.872,1305.582,808.345,1299.307,808.345Z" transform="translate(-1286.681 -799.224)"/></g><path class="a" d="M1299.307,781.7c-6.274,0-12.626-1.473-12.626-4.287s6.352-4.289,12.626-4.289,12.626,1.473,12.626,4.289S1305.582,781.7,1299.307,781.7Zm0-7.215c-6.877,0-11.265,1.734-11.265,2.928s4.388,2.926,11.265,2.926,11.265-1.733,11.265-2.926S1306.184,774.489,1299.307,774.489Z" transform="translate(-1286.681 -773.128)"/><g transform="translate(0 5.364)"><path class="a" d="M1299.307,790.131c-6.274,0-12.626-1.473-12.626-4.288v-4.152a.681.681,0,0,1,1.361,0v4.089a.659.659,0,0,1,0,.089c.064,1.192,4.438,2.9,11.264,2.9,6.877,0,11.265-1.733,11.265-2.927l0-4.107a.681.681,0,0,1,1.361,0V785.8C1311.933,788.658,1305.582,790.131,1299.307,790.131Z" transform="translate(-1286.681 -781.01)"/></g><g transform="translate(0 11.581)"><path class="a" d="M1299.307,799.267c-6.274,0-12.626-1.475-12.626-4.293v-4.148a.681.681,0,0,1,1.361,0v4.085c0,.018,0,.035,0,.053s0,.026,0,.038c.069,1.194,4.443,2.9,11.264,2.9,6.877,0,11.265-1.733,11.265-2.927l0-4.107a.681.681,0,0,1,1.361,0v4.063C1311.933,797.795,1305.582,799.267,1299.307,799.267Z" transform="translate(-1286.681 -790.146)"/></g></g><g transform="translate(0.361 0)"><g transform="translate(0 2.845)"><path class="a" d="M1287.826,744a.68.68,0,0,1-.327-1.277l31.4-17.181a.679.679,0,0,1,.923.271l5.6,10.234,42.53-23.267a.68.68,0,0,1,.653,1.194l-43.127,23.594a.68.68,0,0,1-.924-.27l-5.6-10.234-30.808,16.854A.669.669,0,0,1,1287.826,744Z" transform="translate(-1287.145 -712.691)"/></g><g transform="translate(71.265)"><path class="a" d="M1398.938,721.557a.682.682,0,0,1-.633-.932l3.4-8.58-9.315-2.194a.681.681,0,1,1,.312-1.325l10.082,2.374a.681.681,0,0,1,.476.913l-3.687,9.313A.681.681,0,0,1,1398.938,721.557Z" transform="translate(-1391.862 -708.51)"/></g></g></g></g></svg>