<?xml version="1.0" encoding="utf-8"?>
<!-- Generator: Adobe Illustrator 15.0.0, SVG Export Plug-In . SVG Version: 6.00 Build 0)  -->
<!DOCTYPE svg PUBLIC "-//W3C//DTD SVG 1.1//EN" "http://www.w3.org/Graphics/SVG/1.1/DTD/svg11.dtd">
<svg version="1.1" id="Layer_2-2" xmlns="http://www.w3.org/2000/svg" xmlns:xlink="http://www.w3.org/1999/xlink" x="0px" y="0px"
	 width="75.609px" height="62.359px" viewBox="0 0 75.609 62.359" enable-background="new 0 0 75.609 62.359" xml:space="preserve">
<g>
	<path id="Path_89" fill="#FFFFFF" d="M50.48,55.48H29.74c-0.276,0-0.5-0.224-0.5-0.5s0.224-0.5,0.5-0.5H50.48
		c0.276,0,0.5,0.224,0.5,0.5S50.756,55.48,50.48,55.48z"/>
	<path id="Path_90" fill="#FFFFFF" d="M70.89,55.48H69.9c-0.275,0-0.5-0.224-0.5-0.5s0.225-0.5,0.5-0.5h0.99
		c1.106,0.001,2.006-0.894,2.01-2v-24.5c0-1.109-0.899-2.01-2.01-2.01l0,0h-5.56c-0.276,0-0.5-0.224-0.5-0.5s0.224-0.5,0.5-0.5h5.56
		c1.662,0.002,3.009,1.349,3.01,3.01v24.5c0,1.657-1.343,3-3,3C70.897,55.48,70.894,55.48,70.89,55.48z"/>
	<path id="Path_91" fill="#FFFFFF" d="M10.15,55.48H4.22c-1.658,0-3.004-1.342-3.01-3v-24.5c0.001-1.661,1.348-3.008,3.01-3.01
		h39.95c0.276,0,0.5,0.224,0.5,0.5s-0.224,0.5-0.5,0.5H4.22c-1.11,0-2.01,0.9-2.01,2.01l0,0v24.5c0,1.104,0.896,2,2,2
		c0.003,0,0.007,0,0.01,0h5.93c0.276,0,0.5,0.224,0.5,0.5S10.426,55.48,10.15,55.48z"/>
	<path id="Path_92" fill="#FFFFFF" d="M37.69,40.73H17.52c-0.777,0.001-1.408-0.628-1.41-1.406c0-0.001,0-0.002,0-0.004v-6.81
		c-0.001-0.777,0.629-1.409,1.406-1.41c0.001,0,0.003,0,0.004,0h20.17c0.778-0.001,1.409,0.629,1.41,1.406c0,0.001,0,0.003,0,0.004
		v6.81c0.001,0.778-0.628,1.409-1.406,1.41C37.693,40.73,37.692,40.73,37.69,40.73z M17.52,32.1
		c-0.224-0.002-0.407,0.178-0.41,0.402c0,0.002,0,0.005,0,0.008v6.81c0.002,0.227,0.185,0.409,0.41,0.41h20.17
		c0.225,0.003,0.408-0.178,0.41-0.401c0-0.003,0-0.006,0-0.009v-6.81c-0.001-0.226-0.184-0.409-0.41-0.41H17.52z"/>
	<path id="Path_93" fill="#FFFFFF" d="M9.61,40.73H1.71c-0.276,0-0.5-0.224-0.5-0.5s0.224-0.5,0.5-0.5H9.61
		c0.358,0.001,0.649-0.289,0.65-0.647c0-0.001,0-0.002,0-0.002v-6.33c0.001-0.358-0.29-0.649-0.648-0.65c0,0-0.001,0-0.002,0H1.71
		c-0.276,0-0.5-0.224-0.5-0.5s0.224-0.5,0.5-0.5H9.61c0.911,0.001,1.649,0.739,1.65,1.65v6.33
		C11.259,39.99,10.521,40.729,9.61,40.73z"/>
	<path id="Path_94" fill="#FFFFFF" d="M73.4,40.73H62.72c-0.911-0.001-1.648-0.739-1.65-1.649v-6.33
		c0.002-0.911,0.739-1.649,1.65-1.65H73.4c0.276,0,0.501,0.223,0.501,0.499c0.001,0.276-0.223,0.501-0.499,0.501
		c0,0-0.001,0-0.002,0H62.72c-0.358,0-0.649,0.29-0.65,0.648c0,0,0,0.001,0,0.002v6.33c0,0.358,0.29,0.649,0.648,0.649
		c0.001,0,0.001,0,0.002,0H73.4c0.276,0,0.5,0.224,0.5,0.5S73.676,40.73,73.4,40.73z"/>
	<path id="Path_95" fill="#FFFFFF" d="M44.17,55.48c-0.276,0-0.5-0.224-0.5-0.5V31.6c0-0.276,0.224-0.5,0.5-0.5h11.97
		c0.276,0,0.5,0.224,0.5,0.5v13.34c0,0.276-0.224,0.5-0.5,0.5s-0.5-0.224-0.5-0.5V32.1H44.67v22.88
		C44.67,55.256,44.447,55.48,44.17,55.48z"/>
	<path id="Path_96" fill="#FFFFFF" d="M19.95,61.74c-3.733,0-6.761-3.026-6.761-6.76s3.027-6.76,6.761-6.76s6.76,3.026,6.76,6.76
		l0,0C26.708,58.712,23.683,61.738,19.95,61.74z M19.95,49.21c-3.182,0-5.761,2.578-5.761,5.76s2.579,5.76,5.761,5.76
		c3.181,0,5.76-2.578,5.76-5.76l0,0C25.705,51.79,23.129,49.214,19.95,49.21z"/>
	<path id="Path_97" fill="#FFFFFF" d="M60.25,61.74c-3.733,0-6.76-3.026-6.76-6.76s3.026-6.76,6.76-6.76s6.76,3.026,6.76,6.76
		C67.008,58.712,63.983,61.738,60.25,61.74z M60.25,49.21c-3.182,0-5.76,2.578-5.76,5.76s2.578,5.76,5.76,5.76
		c3.181,0,5.76-2.578,5.76-5.76C66.005,51.79,63.429,49.214,60.25,49.21z"/>
	<path id="Path_98" fill="#FFFFFF" d="M35.07,25.97c-0.193,0-0.37-0.113-0.449-0.29l-1.88-4.05c-0.385-0.83-1.216-1.36-2.131-1.36
		H13.58v5.21c0,0.276-0.225,0.5-0.5,0.5c-0.276,0-0.5-0.224-0.5-0.5v-5.71c0-0.276,0.224-0.5,0.5-0.5H30.61
		c1.304,0.003,2.488,0.759,3.04,1.94l1.88,4.05c0.114,0.249,0.008,0.543-0.239,0.66c-0.066,0.03-0.138,0.048-0.21,0.05H35.07z"/>
	<path id="Path_99" fill="#FFFFFF" d="M75.11,62.36H0.5c-0.276,0-0.5-0.224-0.5-0.5c0-0.275,0.224-0.5,0.5-0.5H75.11
		c0.276,0,0.5,0.225,0.5,0.5C75.61,62.136,75.386,62.36,75.11,62.36z"/>
	<path id="Path_100" fill="#FFFFFF" d="M56.96,5.7L56.96,5.7 M55.8,7.09l-0.96,3.71c-0.079,0.299-0.012,0.617,0.18,0.86
		c0.19,0.243,0.481,0.387,0.79,0.39h3.851l-5.681,6.83l0.96-3.72c0.079-0.3,0.013-0.618-0.18-0.86
		c-0.19-0.243-0.481-0.387-0.79-0.39h-3.84l5.68-6.82 M56.65,4.84c-0.175,0.003-0.34,0.083-0.449,0.22l-7.391,8.88
		c-0.209,0.251-0.176,0.623,0.074,0.833c0.108,0.09,0.245,0.139,0.386,0.138h4.71l-1.41,5.47c-0.082,0.315,0.106,0.638,0.422,0.72
		c0.225,0.06,0.463-0.019,0.608-0.2l7.4-8.89c0.209-0.25,0.176-0.623-0.074-0.833c-0.108-0.09-0.245-0.139-0.386-0.137H55.82
		l1.41-5.46c0.083-0.321-0.109-0.648-0.431-0.731C56.75,4.836,56.7,4.83,56.65,4.83l0,0V4.84z"/>
	<path fill="#FFFFFF" d="M54.89,1C48.268,1,42.9,6.368,42.9,12.99c0,6.622,5.368,11.99,11.99,11.99s11.99-5.368,11.99-11.99
		C66.871,6.371,61.508,1.008,54.89,1z M54.89,23.951c-6.054,0-10.962-4.908-10.962-10.962c0-6.053,4.908-10.961,10.962-10.961
		c6.051,0.007,10.954,4.911,10.962,10.961C65.852,19.044,60.944,23.951,54.89,23.951z"/>
</g>
</svg>
