<svg xmlns="http://www.w3.org/2000/svg" width="42.208" height="66.95" viewBox="0 0 42.208 66.95">
  <g id="Layer_2-2" transform="translate(-0.001)">
    <path id="Path_169" data-name="Path 169" d="M35.2,55.54H6.89a5.51,5.51,0,0,1-5.5-5.5V18.29a5.51,5.51,0,0,1,5.5-5.5H35.2a5.51,5.51,0,0,1,5.5,5.5V50.04A5.51,5.51,0,0,1,35.2,55.54ZM6.89,13.78a4.507,4.507,0,0,0-4.5,4.5V50.03a4.507,4.507,0,0,0,4.5,4.5H35.2a4.507,4.507,0,0,0,4.5-4.5V18.28a4.507,4.507,0,0,0-4.5-4.5H6.89Z" fill="#0060af"/>
    <path id="Path_170" data-name="Path 170" d="M31.7,37.91H10.52a2.5,2.5,0,0,1-2.5-2.5V25.76a2.5,2.5,0,0,1,2.5-2.5H31.7a2.5,2.5,0,0,1,2.5,2.5v9.65A2.5,2.5,0,0,1,31.7,37.91ZM10.52,24.26a1.5,1.5,0,0,0-1.5,1.5v9.65a1.5,1.5,0,0,0,1.5,1.5H31.7a1.5,1.5,0,0,0,1.5-1.5V25.76a1.5,1.5,0,0,0-1.5-1.5Z" fill="#0060af"/>
    <path id="Path_171" data-name="Path 171" d="M27.74,19.09H14.49a.5.5,0,0,1,0-1H27.74a.5.5,0,1,1,0,1Z" fill="#0060af"/>
    <path id="Path_172" data-name="Path 172" d="M11.3,50.1a3.42,3.42,0,1,1,3.42-3.42A3.425,3.425,0,0,1,11.3,50.1Zm0-5.83a2.42,2.42,0,1,0,2.42,2.42A2.422,2.422,0,0,0,11.3,44.27Z" fill="#0060af"/>
    <path id="Path_173" data-name="Path 173" d="M30.65,50.1a3.42,3.42,0,1,1,3.42-3.42A3.425,3.425,0,0,1,30.65,50.1Zm0-5.83a2.42,2.42,0,1,0,2.42,2.42A2.422,2.422,0,0,0,30.65,44.27Z" fill="#0060af"/>
    <path id="Path_174" data-name="Path 174" d="M23.76,44.27H18.59a.5.5,0,0,1,0-1h5.17a.5.5,0,0,1,0,1Z" fill="#0060af"/>
    <path id="Path_175" data-name="Path 175" d="M.5,66.94a.451.451,0,0,1-.25-.07.5.5,0,0,1-.18-.68l6.76-11.4a.5.5,0,0,1,.87.51L.94,66.7a.5.5,0,0,1-.43.25Z" fill="#0060af"/>
    <path id="Path_176" data-name="Path 176" d="M41.7,66.94a.5.5,0,0,1-.43-.25l-6.76-11.4a.493.493,0,0,1,.18-.68.513.513,0,0,1,.69.17l6.76,11.4a.493.493,0,0,1-.18.68.475.475,0,0,1-.25.07Z" fill="#0060af"/>
    <path id="Path_177" data-name="Path 177" d="M37.91,60.54H4.29a.5.5,0,0,1,0-1H37.91a.5.5,0,0,1,0,1Z" fill="#0060af"/>
    <path id="Path_178" data-name="Path 178" d="M33.7,13.78a.522.522,0,0,1-.42-.22l-1.96-2.95a2.93,2.93,0,0,0-2.19-.68H13.08a2.93,2.93,0,0,0-2.19.68L8.93,13.56a.5.5,0,1,1-.83-.55l1.96-2.95a3.708,3.708,0,0,1,3.02-1.12H29.14a3.722,3.722,0,0,1,3.02,1.12l1.96,2.95a.5.5,0,0,1-.14.69A.459.459,0,0,1,33.7,13.78Z" fill="#0060af"/>
    <path id="Path_179" data-name="Path 179" d="M24.73,9.91H17.36a.507.507,0,0,1-.4-.2L10.37.8a.489.489,0,0,1-.04-.52A.5.5,0,0,1,10.78,0H31.33a.512.512,0,0,1,.45.28.511.511,0,0,1-.04.52L25.15,9.71a.479.479,0,0,1-.4.2Zm-7.11-1h6.86L30.33,1H11.76l5.85,7.91Z" fill="#0060af"/>
    <path id="Path_180" data-name="Path 180" d="M8.32,2.42a.5.5,0,0,1-.5-.5A1.859,1.859,0,0,1,9.73,0H10.9a.5.5,0,0,1,.5.5.5.5,0,0,1-.5.5H9.73a.859.859,0,0,0-.91.92A.5.5,0,0,1,8.32,2.42Z" fill="#0060af"/>
    <path id="Path_181" data-name="Path 181" d="M33.77,2.42a.5.5,0,0,1-.5-.5A.861.861,0,0,0,32.35,1H31.18a.5.5,0,0,1-.5-.5.5.5,0,0,1,.5-.5h1.17a1.859,1.859,0,0,1,1.91,1.92.5.5,0,0,1-.5.5Z" fill="#0060af"/>
  </g>
</svg>
