<svg id="Layer_2-2" xmlns="http://www.w3.org/2000/svg" width="51.2" height="60.78" viewBox="0 0 51.2 60.78">
  <path id="Path_186" data-name="Path 186" d="M50.69,60.78H.5a.5.5,0,0,1-.5-.5V4.02A4.02,4.02,0,0,1,4.02,0H47.18A4.02,4.02,0,0,1,51.2,4.02V60.28a.5.5,0,0,1-.5.5ZM1,59.78H50.19V4.02A3.024,3.024,0,0,0,47.17,1H4.02A3.024,3.024,0,0,0,1,4.02Z" fill="#0060af"/>
  <path id="Path_187" data-name="Path 187" d="M17.34,6.11H6.05a.5.5,0,0,1,0-1H17.34a.5.5,0,0,1,0,1Z" fill="#0060af"/>
  <path id="Path_188" data-name="Path 188" d="M24.08,6.11h-2.8a.5.5,0,0,1,0-1h2.8a.5.5,0,0,1,0,1Z" fill="#0060af"/>
  <path id="Path_189" data-name="Path 189" d="M35.31,8.02a2.61,2.61,0,1,1,2.61-2.61A2.612,2.612,0,0,1,35.31,8.02Zm0-4.22a1.61,1.61,0,1,0,1.61,1.61A1.609,1.609,0,0,0,35.31,3.8Z" fill="#0060af"/>
  <path id="Path_190" data-name="Path 190" d="M42.74,8.02a2.61,2.61,0,1,1,2.61-2.61A2.612,2.612,0,0,1,42.74,8.02Zm0-4.22a1.61,1.61,0,1,0,1.61,1.61A1.609,1.609,0,0,0,42.74,3.8Z" fill="#0060af"/>
  <path id="Path_191" data-name="Path 191" d="M48.21,10.31H2.43a.5.5,0,1,1,0-1H48.22a.5.5,0,0,1,0,1Z" fill="#0060af"/>
  <path id="Path_192" data-name="Path 192" d="M25.49,53.94a18.805,18.805,0,1,1,17.4-25.96.5.5,0,0,1-.05.47.508.508,0,0,1-.42.22h-.49a4.83,4.83,0,0,0-4.78,4.78v3.17a4.756,4.756,0,0,0,1.4,3.36,4.688,4.688,0,0,0,3.38,1.42h.57a.478.478,0,0,1,.41.22.521.521,0,0,1,.05.47A18.706,18.706,0,0,1,25.48,53.96Zm0-36.62A17.8,17.8,0,1,0,41.76,42.37a5.793,5.793,0,0,1-5.59-5.77V33.43a5.816,5.816,0,0,1,5.5-5.77A17.76,17.76,0,0,0,25.5,17.31Z" fill="#0060af"/>
  <path id="Path_193" data-name="Path 193" d="M25.49,49.37A14.235,14.235,0,1,1,38.61,29.61a.492.492,0,0,1-.1.54,4.72,4.72,0,0,0-1.34,3.3v3.17a4.756,4.756,0,0,0,1.4,3.36.51.51,0,0,1,.11.54,14.141,14.141,0,0,1-13.17,8.87Zm0-27.47A13.235,13.235,0,1,0,37.61,40.42a5.711,5.711,0,0,1-1.45-3.81V33.44a5.693,5.693,0,0,1,1.4-3.74,13.2,13.2,0,0,0-12.07-7.8Z" fill="#0060af"/>
  <path id="Path_194" data-name="Path 194" d="M16.78,35.63a.5.5,0,0,1-.5-.5,9.214,9.214,0,0,1,9.2-9.2.5.5,0,0,1,0,1,8.211,8.211,0,0,0-8.2,8.2.5.5,0,0,1-.5.5Z" fill="#0060af"/>
  <path id="Path_195" data-name="Path 195" d="M42.5,42.38h-.57a5.8,5.8,0,0,1-5.77-5.78V33.43a5.819,5.819,0,0,1,5.77-5.78h.49a.489.489,0,0,1,.46.31,18.868,18.868,0,0,1,.09,14.09.508.508,0,0,1-.46.32Zm-.57-13.72a4.83,4.83,0,0,0-4.78,4.78v3.17a4.756,4.756,0,0,0,1.4,3.36,4.688,4.688,0,0,0,3.38,1.42h.23a17.727,17.727,0,0,0,1.13-6.25,18.136,18.136,0,0,0-1.21-6.47h-.15Z" fill="#0060af"/>
</svg>
