<svg xmlns="http://www.w3.org/2000/svg" width="74.938" height="60.971" viewBox="0 0 74.938 60.971">
  <g id="Layer_2-2" transform="translate(-0.003 0.001)">
    <path id="Path_124" data-name="Path 124" d="M74.44,22.04a.585.585,0,0,1-.22-.05L30.76.95a.5.5,0,0,1,.44-.9L74.66,21.09a.5.5,0,0,1,.23.67.494.494,0,0,1-.45.28Z" fill="#0060af"/>
    <path id="Path_125" data-name="Path 125" d="M36.16,60.97a.5.5,0,0,1-.5-.5V3.01a.5.5,0,0,1,1,0V60.47a.5.5,0,0,1-.5.5Z" fill="#0060af"/>
    <path id="Path_126" data-name="Path 126" d="M71.03,60.97H4.02a.5.5,0,0,1-.5-.5V33.4a.5.5,0,0,1,1,0V59.97H70.53V19.98a.5.5,0,1,1,1,0V60.47A.5.5,0,0,1,71.03,60.97Z" fill="#0060af"/>
    <path id="Path_127" data-name="Path 127" d="M.5,35.11a.492.492,0,0,1-.47-.34.506.506,0,0,1,.31-.64L36,21.81a.5.5,0,1,1,.33.95L.66,35.08A.453.453,0,0,1,.5,35.11Z" fill="#0060af"/>
    <path id="Path_128" data-name="Path 128" d="M58.93,60.97H46.5a.5.5,0,0,1-.5-.5v-23a.5.5,0,0,1,.5-.5H58.93a.5.5,0,0,1,.5.5v23A.5.5,0,0,1,58.93,60.97ZM47,59.97H58.43v-22H47Z" fill="#0060af"/>
    <path id="Path_129" data-name="Path 129" d="M31.42,60.97h-23a.5.5,0,0,1-.5-.5v-23a.5.5,0,0,1,.5-.5h23a.5.5,0,0,1,.5.5v23A.5.5,0,0,1,31.42,60.97Zm-22.5-1h22v-22h-22Z" fill="#0060af"/>
    <path id="Path_130" data-name="Path 130" d="M31.42,43.13h-23a.5.5,0,0,1,0-1h23a.5.5,0,1,1,0,1Z" fill="#0060af"/>
    <path id="Path_131" data-name="Path 131" d="M31.42,49.73h-23a.5.5,0,0,1,0-1h23a.5.5,0,0,1,0,1Z" fill="#0060af"/>
    <path id="Path_132" data-name="Path 132" d="M31.42,56.33h-23a.5.5,0,0,1,0-1h23a.5.5,0,0,1,0,1Z" fill="#0060af"/>
    <path id="Path_133" data-name="Path 133" d="M63.02,32.06H42.55a.5.5,0,0,1-.5-.5V19.9a.5.5,0,0,1,.5-.5H63.02a.5.5,0,0,1,.5.5V31.56a.5.5,0,0,1-.5.5Zm-19.97-1H62.52V20.4H43.05Z" fill="#0060af"/>
    <path id="Path_134" data-name="Path 134" d="M52.79,32.06a.5.5,0,0,1-.5-.5V19.9a.5.5,0,0,1,1,0V31.56A.5.5,0,0,1,52.79,32.06Z" fill="#0060af"/>
  </g>
</svg>
