<?xml version="1.0" encoding="utf-8"?>
<!-- Generator: Adobe Illustrator 15.0.0, SVG Export Plug-In . SVG Version: 6.00 Build 0)  -->
<!DOCTYPE svg PUBLIC "-//W3C//DTD SVG 1.1//EN" "http://www.w3.org/Graphics/SVG/1.1/DTD/svg11.dtd">
<svg version="1.1" id="Layer_1" xmlns="http://www.w3.org/2000/svg" xmlns:xlink="http://www.w3.org/1999/xlink" x="0px" y="0px"
	 width="72px" height="48px" viewBox="0 0 72 48" enable-background="new 0 0 72 48" xml:space="preserve">
<g id="Layer_2-2_1_">
	<path fill="#0060AF" d="M68.49,45.15H3.51c-1.68,0-3.049-1.369-3.049-3.049V3.303c0-1.681,1.369-3.049,3.049-3.049h64.98
		c1.68,0,3.049,1.368,3.049,3.049v38.789c0,1.68-1.369,3.049-3.049,3.049V45.15z M3.51,1.26c-1.127,0-2.042,0.916-2.042,2.042
		v38.789c0,1.127,0.916,2.042,2.042,2.042h64.98c1.127,0,2.041-0.915,2.041-2.042V3.303c0-1.127-0.914-2.042-2.041-2.042H3.51z"/>
	<path fill="#0060AF" d="M16.047,47.746H8.651c-0.282,0-0.503-0.222-0.503-0.503v-2.616c0-0.281,0.221-0.503,0.503-0.503h7.396
		c0.282,0,0.503,0.222,0.503,0.503v2.616C16.55,47.524,16.329,47.746,16.047,47.746z M9.155,46.74h6.389v-1.61H9.155V46.74z"/>
	<path fill="#0060AF" d="M63.348,47.746h-7.395c-0.283,0-0.504-0.222-0.504-0.503v-2.616c0-0.281,0.221-0.503,0.504-0.503h7.395
		c0.281,0,0.504,0.222,0.504,0.503v2.616C63.852,47.524,63.629,47.746,63.348,47.746z M56.455,46.74h6.391v-1.61h-6.391V46.74z"/>
	<path fill="#0060AF" d="M67.303,11.986H48.598c-0.281,0-0.504-0.221-0.504-0.503V5.909c0-0.282,0.223-0.503,0.504-0.503h18.705
		c0.281,0,0.502,0.221,0.502,0.503v5.574C67.805,11.765,67.584,11.986,67.303,11.986z M49.1,10.98h17.699V6.412H49.1V10.98z"/>
	<path fill="#0060AF" d="M67.303,17.591H48.598c-0.281,0-0.504-0.222-0.504-0.503s0.223-0.503,0.504-0.503h18.705
		c0.281,0,0.502,0.221,0.502,0.503S67.584,17.591,67.303,17.591z"/>
	<path fill="#0060AF" d="M67.303,23.195H48.598c-0.281,0-0.504-0.222-0.504-0.503c0-0.282,0.223-0.503,0.504-0.503h18.705
		c0.281,0,0.502,0.221,0.502,0.503C67.805,22.974,67.584,23.195,67.303,23.195z"/>
	<path fill="#0060AF" d="M67.303,28.789H48.598c-0.281,0-0.504-0.221-0.504-0.503c0-0.281,0.223-0.503,0.504-0.503h18.705
		c0.281,0,0.502,0.222,0.502,0.503C67.805,28.568,67.584,28.789,67.303,28.789z"/>
	<path fill="#0060AF" d="M67.303,34.394H48.598c-0.281,0-0.504-0.221-0.504-0.503c0-0.281,0.223-0.503,0.504-0.503h18.705
		c0.281,0,0.502,0.222,0.502,0.503C67.805,34.173,67.584,34.394,67.303,34.394z"/>
	<path fill="#0060AF" d="M67.303,39.998H48.598c-0.281,0-0.504-0.221-0.504-0.503c0-0.281,0.223-0.503,0.504-0.503h18.705
		c0.281,0,0.502,0.222,0.502,0.503C67.805,39.777,67.584,39.998,67.303,39.998z"/>
	<path fill="#0060AF" d="M24.65,40.914c-10.042,0-18.212-8.17-18.212-18.212S14.618,4.49,24.65,4.49s18.211,8.17,18.211,18.212
		S34.692,40.914,24.65,40.914L24.65,40.914z M24.65,5.506c-9.488,0-17.206,7.717-17.206,17.206s7.718,17.206,17.206,17.206
		S41.855,32.2,41.855,22.712S34.138,5.496,24.65,5.496V5.506z"/>
	<path fill="#0060AF" d="M24.65,26.184c-1.922,0-3.481-1.56-3.481-3.481s1.56-3.481,3.481-3.481s3.481,1.56,3.481,3.481
		S26.572,26.184,24.65,26.184z M24.65,20.227c-1.369,0-2.475,1.107-2.475,2.476c0,1.368,1.106,2.476,2.475,2.476
		c1.368,0,2.475-1.107,2.475-2.476C27.125,21.333,26.018,20.227,24.65,20.227z"/>
	<path fill="#0060AF" d="M13.783,27.753c-0.382,0-0.735-0.03-1.046-0.061c-1.993-0.241-3.562-1.981-3.663-4.034
		c-0.121-2.697,0.322-6.661,3.129-10.253c0.111-0.151,0.302-0.211,0.483-0.181c0.181,0.03,0.332,0.171,0.393,0.342
		c0.342,1.097,2.224,6.55,5.685,6.55c0.242,0,0.473-0.01,0.714-0.041c0.171-0.02,0.352,0.061,0.453,0.202
		c0.101,0.141,0.131,0.332,0.061,0.493c-0.251,0.614-0.382,1.268-0.382,1.922c0,0.814,0.07,1.317,0.503,2.183
		c0.111,0.222,0.05,0.483-0.151,0.624c-2.354,1.781-4.538,2.254-6.198,2.254H13.783z M12.445,14.783
		c-2.123,3.14-2.465,6.49-2.365,8.824c0.071,1.57,1.268,2.898,2.777,3.079c2.103,0.252,4.176-0.332,6.188-1.751
		c-0.362-0.825-0.433-1.429-0.433-2.243c0-0.534,0.07-1.057,0.211-1.57h-0.05C15.272,21.122,13.24,16.876,12.445,14.783z"/>
	<path fill="#0060AF" d="M36.795,32.24c0,0-0.061,0-0.092,0c-0.181-0.029-0.332-0.171-0.392-0.342
		c-0.342-1.097-2.224-6.55-5.685-6.55c-0.241,0-0.473,0.01-0.714,0.04c-0.171,0.02-0.352-0.061-0.453-0.201
		s-0.131-0.332-0.061-0.493c0.252-0.614,0.382-1.268,0.382-1.922c0-0.815-0.07-1.318-0.503-2.184
		c-0.111-0.221-0.05-0.483,0.151-0.624c2.898-2.194,5.534-2.395,7.245-2.184c1.992,0.251,3.562,1.982,3.662,4.035
		c0.121,2.697-0.322,6.661-3.129,10.253c-0.102,0.121-0.242,0.191-0.392,0.191L36.795,32.24z M30.626,24.322
		c3.492,0,5.494,4.095,6.329,6.329c2.123-3.14,2.464-6.49,2.365-8.825c-0.07-1.57-1.268-2.898-2.777-3.079
		c-2.103-0.261-4.186,0.332-6.188,1.751c0.362,0.825,0.433,1.429,0.433,2.244c0,0.533-0.07,1.057-0.211,1.569h0.05V24.322z"/>
	<path fill="#0060AF" d="M24.791,38.349c-2.646,0-6.208-0.604-9.458-3.149c-0.151-0.111-0.221-0.302-0.181-0.483
		c0.03-0.181,0.171-0.332,0.342-0.393c1.097-0.342,6.55-2.224,6.55-5.685c0-0.241-0.01-0.473-0.041-0.715
		c-0.02-0.171,0.061-0.352,0.201-0.452c0.141-0.101,0.333-0.131,0.493-0.061c0.614,0.252,1.268,0.382,1.922,0.382
		c0.815,0,1.318-0.07,2.184-0.503c0.221-0.11,0.483-0.05,0.624,0.142c2.194,2.897,2.395,5.533,2.184,7.244
		c-0.251,1.992-1.982,3.562-4.035,3.662c-0.251,0.011-0.523,0.021-0.795,0.021L24.791,38.349z M16.721,34.968
		c3.139,2.123,6.49,2.465,8.824,2.364c1.57-0.07,2.898-1.268,3.079-2.777c0.261-2.103-0.332-4.176-1.751-6.188
		c-0.825,0.362-1.429,0.433-2.244,0.433c-0.533,0-1.057-0.07-1.57-0.212v0.051C23.06,32.13,18.965,34.133,16.721,34.968z"/>
	<path fill="#0060AF" d="M22.275,18.184c-0.151,0-0.302-0.07-0.403-0.201c-2.193-2.898-2.395-5.534-2.183-7.245
		c0.241-1.992,1.982-3.562,4.035-3.663c2.697-0.121,6.661,0.322,10.253,3.129c0.151,0.111,0.222,0.302,0.181,0.483
		c-0.03,0.181-0.171,0.332-0.342,0.393c-1.097,0.342-6.55,2.224-6.55,5.685c0,0.241,0.01,0.473,0.04,0.714
		c0.02,0.171-0.061,0.352-0.201,0.453c-0.141,0.101-0.332,0.131-0.493,0.061c-0.614-0.252-1.268-0.382-1.922-0.382
		c-0.815,0-1.318,0.07-2.183,0.503c-0.071,0.04-0.151,0.05-0.222,0.05L22.275,18.184z M24.519,8.072c-0.262,0-0.513,0-0.754,0.02
		c-1.57,0.07-2.898,1.268-3.079,2.777c-0.262,2.103,0.332,4.176,1.75,6.188c0.825-0.362,1.429-0.433,2.244-0.433
		c0.533,0,1.056,0.071,1.569,0.211v-0.05c0-3.492,4.095-5.494,6.339-6.329c-2.817-1.901-5.796-2.375-8.07-2.375V8.072z"/>
</g>
</svg>
