<svg id="Layer_2-2" xmlns="http://www.w3.org/2000/svg" width="70.7" height="47.48" viewBox="0 0 70.7 47.48">
  <path id="Path_157" data-name="Path 157" d="M35.35,31.9A10.94,10.94,0,1,1,46.29,20.96,10.955,10.955,0,0,1,35.35,31.9Zm0-20.88a9.94,9.94,0,1,0,9.94,9.94,9.952,9.952,0,0,0-9.94-9.94Z" fill="#0060af"/>
  <path id="Path_158" data-name="Path 158" d="M37.21,14.96h0m-1.44,1.73-.62,2.39a.982.982,0,0,0,.18.86,1.015,1.015,0,0,0,.79.39h2.87l-4.06,4.88.62-2.4a.982.982,0,0,0-.18-.86,1.015,1.015,0,0,0-.79-.39H31.72l4.06-4.87m1.04-2.55a.457.457,0,0,0-.37.18l-6.18,7.43a.493.493,0,0,0,.38.81h3.94l-1.18,4.58a.5.5,0,0,0,.49.62.457.457,0,0,0,.37-.18l6.19-7.43a.493.493,0,0,0-.38-.81H36.14l1.18-4.57a.5.5,0,0,0-.49-.62h0Z" fill="#0060af"/>
  <path id="Path_159" data-name="Path 159" d="M65.65,41.91a.5.5,0,0,1-.5-.5V3.65A2.6,2.6,0,0,0,62.62,1H8.08A2.593,2.593,0,0,0,5.55,3.65V41.41a.5.5,0,0,1-1,0V3.65A3.6,3.6,0,0,1,8.08,0H62.62a3.6,3.6,0,0,1,3.53,3.65V41.41A.5.5,0,0,1,65.65,41.91Z" fill="#0060af"/>
  <path id="Path_160" data-name="Path 160" d="M67.2,47.48H3.5A3.5,3.5,0,0,1,0,43.98V42.16A1.261,1.261,0,0,1,1.26,40.9H69.44a1.261,1.261,0,0,1,1.26,1.26v1.82a3.5,3.5,0,0,1-3.5,3.5ZM1.26,41.91a.265.265,0,0,0-.26.26v1.82a2.5,2.5,0,0,0,2.5,2.5H67.2a2.5,2.5,0,0,0,2.5-2.5V42.17a.265.265,0,0,0-.26-.26Z" fill="#0060af"/>
  <path id="Path_161" data-name="Path 161" d="M37.62,44.94H33.07a.5.5,0,0,1,0-1h4.55a.5.5,0,0,1,0,1Z" fill="#0060af"/>
</svg>
