<svg id="Layer_2-2" xmlns="http://www.w3.org/2000/svg" width="36.96" height="64.5" viewBox="0 0 36.96 64.5">
  <path id="Path_116" data-name="Path 116" d="M36.46,22.34H.5a.5.5,0,0,1-.5-.5V.5A.5.5,0,0,1,.5,0H36.46a.5.5,0,0,1,.5.5V21.84A.5.5,0,0,1,36.46,22.34ZM1,21.34H35.96V1H1Z" fill="#0060af"/>
  <path id="Path_117" data-name="Path 117" d="M36.46,61.87H.5a.5.5,0,0,1-.5-.5V25a.5.5,0,0,1,.5-.5H36.46a.5.5,0,0,1,.5.5V61.38a.5.5,0,0,1-.5.5ZM1,60.87H35.96V25.5H1V60.88Z" fill="#0060af"/>
  <path id="Path_118" data-name="Path 118" d="M5.55,15.19a.5.5,0,0,1-.5-.5V7.45a.5.5,0,0,1,1,0v7.24A.5.5,0,0,1,5.55,15.19Z" fill="#0060af"/>
  <path id="Path_119" data-name="Path 119" d="M5.55,47.3a.5.5,0,0,1-.5-.5V39.56a.5.5,0,0,1,1,0V46.8a.5.5,0,0,1-.5.5Z" fill="#0060af"/>
  <path id="Path_120" data-name="Path 120" d="M7.12,64.5H2.29a.5.5,0,0,1-.5-.5V61.37a.5.5,0,0,1,.5-.5H7.13a.5.5,0,0,1,.5.5V64a.5.5,0,0,1-.5.5Zm-4.34-1H6.62V61.87H2.78V63.5Z" fill="#0060af"/>
  <path id="Path_121" data-name="Path 121" d="M34.05,64.5H29.21a.5.5,0,0,1-.5-.5V61.37a.5.5,0,0,1,.5-.5h4.84a.5.5,0,0,1,.5.5V64A.5.5,0,0,1,34.05,64.5Zm-4.34-1h3.84V61.87H29.71Z" fill="#0060af"/>
  <path id="Path_122" data-name="Path 122" d="M1.75,25.5a.5.5,0,0,1-.5-.5V21.85a.5.5,0,0,1,1,0V25A.5.5,0,0,1,1.75,25.5Z" fill="#0060af"/>
  <path id="Path_123" data-name="Path 123" d="M35.21,25.5a.5.5,0,0,1-.5-.5V21.85a.5.5,0,0,1,1,0V25A.5.5,0,0,1,35.21,25.5Z" fill="#0060af"/>
</svg>
