<?xml version="1.0" encoding="utf-8"?>
<!-- Generator: Adobe Illustrator 15.0.0, SVG Export Plug-In . SVG Version: 6.00 Build 0)  -->
<!DOCTYPE svg PUBLIC "-//W3C//DTD SVG 1.1//EN" "http://www.w3.org/Graphics/SVG/1.1/DTD/svg11.dtd">
<svg version="1.1" id="Layer_1" xmlns="http://www.w3.org/2000/svg" xmlns:xlink="http://www.w3.org/1999/xlink" x="0px" y="0px"
	 width="62px" height="67px" viewBox="0 0 62 67" enable-background="new 0 0 62 67" xml:space="preserve">
<g id="Layer_2-2_1_">
	<path fill="#0060AF" d="M34.459,66.585h-7.031c-0.279,0-0.498-0.218-0.498-0.498V34.805c0-1.94,1.581-3.521,3.52-3.521h0.985
		c1.938,0,3.521,1.581,3.521,3.521v31.282C34.956,66.367,34.737,66.585,34.459,66.585z M27.925,65.592h6.035V34.805
		c0-1.394-1.134-2.526-2.524-2.526H30.45c-1.392,0-2.525,1.133-2.525,2.526V65.592z"/>
	<path fill="#0060AF" d="M58.284,66.585H3.731c-0.279,0-0.497-0.218-0.497-0.498c0-0.277,0.218-0.495,0.497-0.495h54.553
		c0.277,0,0.496,0.218,0.496,0.495C58.78,66.367,58.562,66.585,58.284,66.585z"/>
	<path fill="#0060AF" d="M31.007,32.059c-0.277,0-0.497-0.218-0.497-0.497V15.016c0-1.591-1.283-4.406-4.046-5.43
		C23.629,8.542,3.771,1.492,3.572,1.422C3.314,1.333,3.174,1.044,3.273,0.785c0.09-0.258,0.378-0.397,0.636-0.298
		c0.199,0.07,20.067,7.12,22.901,8.164c3.242,1.194,4.704,4.436,4.704,6.365v16.546c0,0.279-0.219,0.497-0.497,0.497H31.007z"/>
	<path fill="#0060AF" d="M15.902,9.288c-0.438,0-0.885-0.069-1.322-0.229l0,0l-8.9-3.162C3.611,5.161,2.528,2.884,3.264,0.826
		c0.04-0.12,0.149-0.259,0.268-0.319c0.12-0.06,0.27-0.099,0.399-0.049l15.454,5.489c0.118,0.04,0.228,0.139,0.277,0.259
		c0.06,0.119,0.06,0.258,0.02,0.378c-0.597,1.68-2.138,2.715-3.779,2.715V9.288z M14.918,8.124c1.413,0.497,2.953-0.129,3.64-1.422
		L4.089,1.561C3.811,3.023,4.606,4.465,6.008,4.953l8.899,3.162L14.918,8.124z"/>
	<path fill="#0060AF" d="M31.007,32.059c-0.277,0-0.497-0.218-0.497-0.497V15.016c0-1.919,1.462-5.171,4.704-6.365
		c2.846-1.044,22.703-8.094,22.901-8.164c0.259-0.089,0.546,0.041,0.637,0.298c0.089,0.259-0.04,0.547-0.299,0.637
		c-0.199,0.07-20.058,7.11-22.893,8.164c-2.763,1.014-4.046,3.838-4.046,5.43v16.546c0,0.279-0.219,0.497-0.497,0.497H31.007z"/>
	<path fill="#0060AF" d="M46.111,9.288c-1.631,0-3.171-1.014-3.747-2.646c-0.091-0.258,0.02-0.616,0.276-0.706l15.453-5.489
		c0.259-0.099,0.548,0.04,0.637,0.298c0.757,2.139-0.327,4.416-2.387,5.142l-8.898,3.162l0,0c-0.438,0.159-0.886,0.229-1.322,0.229
		L46.111,9.288z M47.276,8.591L47.276,8.591L47.276,8.591z M43.488,6.692c0.705,1.313,2.227,1.919,3.628,1.422l8.9-3.162
		c1.41-0.508,2.218-1.97,1.92-3.402L43.488,6.682V6.692z"/>
	<path fill="#0060AF" d="M8.523,11.654c-0.059,0-0.109,0-0.168-0.029c-0.258-0.089-0.397-0.378-0.299-0.637l0.687-1.919
		C8.832,8.811,9.121,8.67,9.379,8.771C9.638,8.86,9.777,9.148,9.677,9.407l-0.685,1.918C8.921,11.535,8.723,11.654,8.523,11.654z"/>
	<path fill="#0060AF" d="M12.512,13.066c-0.061,0-0.111,0-0.17-0.03c-0.259-0.089-0.398-0.377-0.298-0.635l0.685-1.92
		c0.091-0.258,0.379-0.397,0.638-0.298c0.258,0.089,0.396,0.377,0.298,0.637l-0.687,1.918C12.91,12.947,12.71,13.066,12.512,13.066z
		"/>
	<path fill="#0060AF" d="M4.537,10.232c-0.06,0-0.11,0-0.169-0.029c-0.258-0.09-0.398-0.378-0.298-0.637l0.686-1.919
		c0.089-0.258,0.377-0.398,0.636-0.299c0.259,0.09,0.398,0.378,0.298,0.637L5.004,9.904C4.935,10.113,4.736,10.232,4.537,10.232z"/>
	<path fill="#0060AF" d="M0.927,7.498c-0.14,0-0.278-0.059-0.378-0.179C0.37,7.11,0.4,6.792,0.608,6.613L2.16,5.29
		c0.208-0.179,0.527-0.149,0.697,0.06c0.179,0.209,0.148,0.527-0.06,0.707L1.245,7.378C1.155,7.458,1.036,7.498,0.927,7.498z"/>
	<path fill="#0060AF" d="M17.205,13.583c-0.238,0-0.448-0.168-0.487-0.406l-0.368-2.009c-0.051-0.268,0.128-0.526,0.397-0.577
		c0.278-0.04,0.527,0.13,0.577,0.397l0.368,2.009c0.05,0.268-0.129,0.527-0.397,0.577c-0.03,0-0.06,0-0.09,0V13.583z"/>
	<path fill="#0060AF" d="M53.689,11.654c-0.208,0-0.398-0.129-0.468-0.328l-0.686-1.918c-0.089-0.259,0.039-0.547,0.298-0.637
		c0.258-0.1,0.548,0.04,0.637,0.298l0.687,1.919c0.089,0.259-0.04,0.547-0.298,0.637C53.798,11.644,53.749,11.654,53.689,11.654z"/>
	<path fill="#0060AF" d="M49.702,13.066c-0.208,0-0.398-0.129-0.467-0.328l-0.686-1.918c-0.09-0.26,0.039-0.548,0.297-0.637
		c0.259-0.1,0.546,0.04,0.638,0.298l0.685,1.92c0.091,0.258-0.038,0.546-0.299,0.635C49.812,13.056,49.762,13.066,49.702,13.066z"/>
	<path fill="#0060AF" d="M57.668,10.232c-0.21,0-0.398-0.129-0.469-0.328l-0.687-1.918c-0.09-0.259,0.041-0.547,0.299-0.637
		c0.259-0.099,0.548,0.041,0.637,0.299l0.686,1.919c0.091,0.258-0.04,0.547-0.298,0.637C57.776,10.222,57.727,10.232,57.668,10.232z
		"/>
	<path fill="#0060AF" d="M61.277,7.498c-0.109,0-0.229-0.04-0.317-0.119l-1.552-1.322c-0.209-0.18-0.24-0.498-0.06-0.707
		c0.178-0.208,0.487-0.238,0.695-0.06l1.552,1.323c0.208,0.179,0.236,0.498,0.06,0.706C61.556,7.438,61.416,7.498,61.277,7.498z"/>
	<path fill="#0060AF" d="M44.998,13.583c0,0-0.059,0-0.09,0c-0.268-0.048-0.447-0.307-0.396-0.576l0.366-2.009
		c0.05-0.268,0.309-0.447,0.578-0.397c0.27,0.05,0.446,0.309,0.397,0.577l-0.368,2.009c-0.04,0.238-0.249,0.407-0.487,0.407V13.583z
		"/>
</g>
</svg>
