<svg id="Layer_2-2" xmlns="http://www.w3.org/2000/svg" width="37.6" height="63.46" viewBox="0 0 37.6 63.46">
  <path id="Path_162" data-name="Path 162" d="M18.8,42.71A10.94,10.94,0,1,1,29.74,31.77,10.955,10.955,0,0,1,18.8,42.71Zm0-20.88a9.94,9.94,0,1,0,9.94,9.94,9.952,9.952,0,0,0-9.94-9.94Z" fill="#0060af"/>
  <path id="Path_163" data-name="Path 163" d="M20.66,25.77h0M19.22,27.5l-.62,2.39a.982.982,0,0,0,.18.86,1.015,1.015,0,0,0,.79.39h2.87l-4.06,4.88.62-2.4a.982.982,0,0,0-.18-.86,1.015,1.015,0,0,0-.79-.39H15.17l4.06-4.87m1.04-2.55a.457.457,0,0,0-.37.18l-6.18,7.43a.493.493,0,0,0,.38.81h3.94l-1.18,4.58a.5.5,0,0,0,.49.62.457.457,0,0,0,.37-.18l6.19-7.43a.493.493,0,0,0-.38-.81H19.59l1.18-4.57a.5.5,0,0,0-.49-.62h0Z" fill="#0060af"/>
  <path id="Path_164" data-name="Path 164" d="M31.62,63.45H5.98A5.983,5.983,0,0,1,0,57.47V5.98A5.983,5.983,0,0,1,5.98,0H31.62A5.983,5.983,0,0,1,37.6,5.98v51.5a5.983,5.983,0,0,1-5.98,5.98ZM5.98,1A4.98,4.98,0,0,0,1,5.98v51.5a4.98,4.98,0,0,0,4.98,4.98H31.62a4.98,4.98,0,0,0,4.98-4.98V5.98A4.987,4.987,0,0,0,31.62,1Z" fill="#0060af"/>
  <path id="Path_165" data-name="Path 165" d="M37.1,53.79H.5a.5.5,0,0,1,0-1H37.1a.5.5,0,0,1,0,1Z" fill="#0060af"/>
  <path id="Path_166" data-name="Path 166" d="M37.1,10.66H.5a.5.5,0,0,1,0-1H37.1a.5.5,0,0,1,0,1Z" fill="#0060af"/>
  <path id="Path_167" data-name="Path 167" d="M21.56,58.62H16.05a.5.5,0,0,1,0-1h5.51a.5.5,0,0,1,0,1Z" fill="#0060af"/>
  <path id="Path_168" data-name="Path 168" d="M19.78,5.83H17.82a.5.5,0,0,1,0-1h1.96a.5.5,0,0,1,0,1Z" fill="#0060af"/>
</svg>
