<?xml version="1.0" encoding="UTF-8"?><svg id="Layer_2" xmlns="http://www.w3.org/2000/svg" viewBox="0 0 79.18 52.79"><defs><style>.cls-1{fill:#0060af;stroke-width:0px;}</style></defs><g id="Layer_2-2"><path class="cls-1" d="m75.51,29.89h-5.45v-2.79c0-2.32-1.89-4.21-4.21-4.21H13.33c-2.32,0-4.21,1.89-4.21,4.21v2.79H3.67c-2.02,0-3.67-1.65-3.67-3.67V3.67C0,1.65,1.65,0,3.67,0h71.84c2.02,0,3.67,1.65,3.67,3.67v22.55c0,2.02-1.65,3.67-3.67,3.67Zm-4.45-1h4.45c1.47,0,2.67-1.2,2.67-2.67V3.67c0-1.47-1.2-2.67-2.67-2.67H3.67c-1.47,0-2.67,1.2-2.67,2.67v22.55c0,1.47,1.2,2.67,2.67,2.67h4.44v-1.79c0-2.87,2.34-5.21,5.21-5.21h52.53c2.87,0,5.21,2.34,5.21,5.21v1.79Z"/><path class="cls-1" d="m71.07,29.89H8.11v-2.79c0-2.87,2.34-5.21,5.21-5.21h52.53c2.87,0,5.21,2.34,5.21,5.21v2.79Zm-61.95-1h60.95v-1.79c0-2.32-1.89-4.21-4.21-4.21H13.33c-2.32,0-4.21,1.89-4.21,4.21v1.79Z"/><path class="cls-1" d="m68.6,14.16c-1.36,0-2.47-1.11-2.47-2.47s1.11-2.47,2.47-2.47,2.47,1.11,2.47,2.47-1.11,2.47-2.47,2.47Zm0-3.94c-.81,0-1.47.66-1.47,1.47s.66,1.47,1.47,1.47,1.47-.66,1.47-1.47-.66-1.47-1.47-1.47Z"/><path class="cls-1" d="m61.98,14.16c-1.36,0-2.47-1.11-2.47-2.47s1.11-2.47,2.47-2.47,2.47,1.11,2.47,2.47-1.11,2.47-2.47,2.47Zm0-3.94c-.81,0-1.47.66-1.47,1.47s.66,1.47,1.47,1.47,1.47-.66,1.47-1.47-.66-1.47-1.47-1.47Z"/><path class="cls-1" d="m66.42,50.52c-.14,0-.27-.05-.37-.16-1.64-1.79-2.36-3.5-2.14-5.06.19-1.33,1-2.22,1.71-3,.7-.76,1.3-1.42,1.38-2.4.1-1.13-.53-2.35-1.86-3.63-.2-.19-.21-.51-.01-.71.19-.2.51-.21.71-.01,1.56,1.5,2.29,2.99,2.17,4.43-.11,1.32-.89,2.17-1.64,2.99-.68.74-1.32,1.44-1.46,2.46-.18,1.25.46,2.68,1.89,4.24.19.2.17.52-.03.71-.1.09-.22.13-.34.13Z"/><path class="cls-1" d="m56.86,50.52c-.14,0-.27-.05-.37-.16-1.64-1.79-2.36-3.5-2.14-5.06.19-1.33,1-2.22,1.71-3,.7-.76,1.3-1.42,1.38-2.4.1-1.13-.53-2.35-1.86-3.63-.2-.19-.21-.51-.01-.71.19-.2.51-.21.71-.01,1.56,1.5,2.29,2.99,2.17,4.43-.11,1.32-.89,2.17-1.64,2.99-.68.74-1.32,1.44-1.46,2.46-.18,1.25.46,2.68,1.89,4.24.19.2.17.52-.03.71-.1.09-.22.13-.34.13Z"/><path class="cls-1" d="m47.3,50.52c-.14,0-.27-.05-.37-.16-1.64-1.79-2.36-3.5-2.14-5.06.19-1.33,1-2.22,1.71-3,.7-.76,1.3-1.42,1.38-2.4.1-1.13-.53-2.35-1.86-3.63-.2-.19-.21-.51-.01-.71.19-.2.51-.21.71-.01,1.56,1.5,2.29,2.99,2.17,4.43-.11,1.32-.89,2.17-1.64,2.99-.68.74-1.32,1.44-1.46,2.46-.18,1.25.46,2.68,1.89,4.24.19.2.17.52-.03.71-.1.09-.22.13-.34.13Z"/><path class="cls-1" d="m37.74,50.52c-.14,0-.27-.05-.37-.16-1.64-1.79-2.36-3.5-2.14-5.06.19-1.33,1-2.22,1.71-3,.7-.76,1.3-1.42,1.38-2.4.1-1.13-.53-2.35-1.86-3.63-.2-.19-.21-.51-.01-.71.19-.2.51-.21.71-.01,1.56,1.5,2.29,2.99,2.17,4.43-.11,1.32-.89,2.17-1.64,2.99-.68.74-1.32,1.44-1.46,2.46-.18,1.25.46,2.68,1.89,4.24.19.2.17.52-.03.71-.1.09-.22.13-.34.13Z"/><path class="cls-1" d="m19.87,52.79c-.28,0-.5-.22-.5-.5v-18.64c0-.28.22-.5.5-.5s.5.22.5.5v18.64c0,.28-.22.5-.5.5Z"/><path class="cls-1" d="m19.88,38.36c-.13,0-.26-.05-.35-.15l-2.41-2.41c-.2-.2-.2-.51,0-.71s.51-.2.71,0l2.41,2.41c.2.2.2.51,0,.71-.1.1-.23.15-.35.15Z"/><path class="cls-1" d="m19.88,38.36c-.13,0-.26-.05-.35-.15-.2-.2-.2-.51,0-.71l2.41-2.41c.2-.2.51-.2.71,0s.2.51,0,.71l-2.41,2.41c-.1.1-.23.15-.35.15Z"/><path class="cls-1" d="m17.48,50.99c-.13,0-.26-.05-.35-.15-.2-.2-.2-.51,0-.71l2.41-2.41c.2-.2.51-.2.71,0s.2.51,0,.71l-2.41,2.41c-.1.1-.23.15-.35.15Z"/><path class="cls-1" d="m22.29,50.99c-.13,0-.26-.05-.35-.15l-2.41-2.41c-.2-.2-.2-.51,0-.71s.51-.2.71,0l2.41,2.41c.2.2.2.51,0,.71-.1.1-.23.15-.35.15Z"/><path class="cls-1" d="m11.8,48.14c-.17,0-.34-.09-.43-.25-.14-.24-.06-.54.18-.68l16.15-9.32c.24-.14.54-.06.68.18.14.24.06.54-.18.68l-16.15,9.32c-.08.05-.16.07-.25.07Z"/><path class="cls-1" d="m14.56,49.32s-.09,0-.13-.02c-.27-.07-.42-.35-.35-.61l.88-3.29c.07-.27.35-.42.61-.35.27.07.42.35.35.61l-.88,3.29c-.06.22-.26.37-.48.37Z"/><path class="cls-1" d="m15.44,46.03s-.09,0-.13-.02l-3.29-.88c-.27-.07-.43-.35-.35-.61.07-.27.35-.42.61-.35l3.29.88c.27.07.43.35.35.61-.06.22-.26.37-.48.37Z"/><path class="cls-1" d="m27.58,41.8s-.09,0-.13-.02l-3.29-.88c-.27-.07-.42-.35-.35-.61.07-.27.35-.42.61-.35l3.29.88c.27.07.42.35.35.61-.06.22-.26.37-.48.37Z"/><path class="cls-1" d="m24.3,40.92s-.09,0-.13-.02c-.27-.07-.42-.35-.35-.61l.88-3.29c.07-.27.35-.42.61-.35.27.07.42.35.35.61l-.88,3.29c-.06.22-.26.37-.48.37Z"/><path class="cls-1" d="m27.94,48.13c-.08,0-.17-.02-.25-.07l-16.15-9.32c-.24-.14-.32-.44-.18-.68.14-.24.44-.32.68-.18l16.15,9.32c.24.14.32.44.18.68-.09.16-.26.25-.43.25Z"/><path class="cls-1" d="m15.44,40.91c-.22,0-.42-.15-.48-.37l-.88-3.29c-.07-.27.09-.54.35-.61.27-.07.54.09.61.35l.88,3.29c.07.27-.09.54-.35.61-.04.01-.09.02-.13.02Z"/><path class="cls-1" d="m12.16,41.79c-.22,0-.42-.15-.48-.37-.07-.27.09-.54.35-.61l3.29-.88c.27-.07.54.09.61.35.07.27-.09.54-.35.61l-3.29.88s-.09.02-.13.02Z"/><path class="cls-1" d="m24.29,46.02c-.22,0-.42-.15-.48-.37-.07-.27.09-.54.35-.61l3.29-.88c.27-.07.54.09.61.35.07.27-.09.54-.35.61l-3.29.88s-.09.02-.13.02Z"/><path class="cls-1" d="m25.18,49.31c-.22,0-.42-.15-.48-.37l-.88-3.29c-.07-.27.09-.54.35-.61.27-.07.54.09.61.35l.88,3.29c.07.27-.09.54-.35.61-.04.01-.09.02-.13.02Z"/></g></svg>