<svg id="Layer_2-2" xmlns="http://www.w3.org/2000/svg" width="79.86" height="50.9" viewBox="0 0 79.86 50.9">
  <path id="Path_101" data-name="Path 101" d="M71.26,12.32h0m-1.44,1.73-.62,2.39a.982.982,0,0,0,.18.86,1.015,1.015,0,0,0,.79.39h2.87l-4.06,4.88.62-2.4a.982.982,0,0,0-.18-.86,1.015,1.015,0,0,0-.79-.39H65.77l4.06-4.87m1.04-2.55a.457.457,0,0,0-.37.18l-6.18,7.43a.493.493,0,0,0,.38.81h3.94L67.46,24.5a.5.5,0,0,0,.49.62.457.457,0,0,0,.37-.18l6.19-7.43a.493.493,0,0,0-.38-.81H70.19l1.18-4.57a.5.5,0,0,0-.49-.62h0Z" fill="#0060af"/>
  <path id="Path_102" data-name="Path 102" d="M10.98,44.22H.5a.5.5,0,0,1,0-1H10.98a.5.5,0,0,1,0,1Z" fill="#0060af"/>
  <path id="Path_103" data-name="Path 103" d="M45.3,40.39H40.59a.5.5,0,0,1,0-1H45.3a.5.5,0,0,1,0,1Z" fill="#0060af"/>
  <path id="Path_104" data-name="Path 104" d="M50.4,30.98a.5.5,0,0,1-.5-.5V20.03a4.82,4.82,0,0,0-4.08-4.78l-7.2-1.13a22.421,22.421,0,0,1-6.94-2.3L19.43,5.38A21.492,21.492,0,0,0,9.49,2.93H.5a.5.5,0,0,1,0-1H9.49A22.416,22.416,0,0,1,19.89,4.5l12.25,6.44a21.574,21.574,0,0,0,6.63,2.2l7.2,1.13a5.8,5.8,0,0,1,4.93,5.76V30.48A.5.5,0,0,1,50.4,30.98Z" fill="#0060af"/>
  <path id="Path_105" data-name="Path 105" d="M18,17.82H.5a.5.5,0,0,1,0-1H18A9.754,9.754,0,0,0,24.89,14l4.29-4.22a.5.5,0,0,1,.71.71L25.6,14.71A10.8,10.8,0,0,1,18,17.82Z" fill="#0060af"/>
  <path id="Path_106" data-name="Path 106" d="M25.52,50.9A11.765,11.765,0,1,1,37.28,39.14,11.773,11.773,0,0,1,25.52,50.9Zm0-22.53A10.765,10.765,0,1,0,36.28,39.14,10.772,10.772,0,0,0,25.52,28.37Z" fill="#0060af"/>
  <path id="Path_107" data-name="Path 107" d="M25.52,43.64a4.51,4.51,0,1,1,4.51-4.51A4.517,4.517,0,0,1,25.52,43.64Zm0-8.01a3.51,3.51,0,1,0,3.51,3.51A3.515,3.515,0,0,0,25.52,35.63Z" fill="#0060af"/>
  <path id="Path_108" data-name="Path 108" d="M6.94,25.06H.5a.5.5,0,0,1,0-1H6.94a.5.5,0,0,1,0,1Z" fill="#0060af"/>
  <path id="Path_109" data-name="Path 109" d="M50.4,22.85H46.9a3.86,3.86,0,1,1,0-7.72h1.2a.5.5,0,0,1,0,1H46.9a2.86,2.86,0,0,0,0,5.72h3.5a.5.5,0,0,1,0,1Z" fill="#0060af"/>
  <path id="Path_110" data-name="Path 110" d="M33.69,24.62h-4.1a3.389,3.389,0,0,1-3.38-3.38,3.432,3.432,0,0,1,3.38-3.43h4.1a.5.5,0,0,1,.5.5v5.81A.5.5,0,0,1,33.69,24.62Zm-4.1-5.81a2.386,2.386,0,0,0-2.38,2.38,2.429,2.429,0,0,0,2.38,2.43h3.6V18.81h-3.6Z" fill="#0060af"/>
  <path id="Path_111" data-name="Path 111" d="M59.43,44.55H53.07a.478.478,0,0,1-.41-.22L37.19,21.71h-3.5a.5.5,0,0,1,0-1h3.77a.478.478,0,0,1,.41.22L53.34,43.55h5.59V26.32a.5.5,0,0,1,1,0V44.05a.5.5,0,0,1-.5.5Z" fill="#0060af"/>
  <path id="Path_112" data-name="Path 112" d="M72.66,35.29H66.13a7.208,7.208,0,0,1-7.2-7.2V7.2A7.208,7.208,0,0,1,66.13,0h6.53a7.208,7.208,0,0,1,7.2,7.2V28.09A7.208,7.208,0,0,1,72.66,35.29ZM66.13,1a6.205,6.205,0,0,0-6.2,6.2V28.09a6.205,6.205,0,0,0,6.2,6.2h6.53a6.205,6.205,0,0,0,6.2-6.2V7.2A6.205,6.205,0,0,0,72.66,1Z" fill="#0060af"/>
  <path id="Path_113" data-name="Path 113" d="M73.36,50.9H65.43a.5.5,0,0,1-.5-.5V34.79a.5.5,0,0,1,.5-.5h7.93a.5.5,0,0,1,.5.5V50.4A.5.5,0,0,1,73.36,50.9Zm-7.43-1h6.93V35.29H65.93Z" fill="#0060af"/>
  <path id="Path_114" data-name="Path 114" d="M77.2,50.9H.5a.5.5,0,0,1,0-1H77.2a.5.5,0,0,1,0,1Z" fill="#0060af"/>
  <path id="Path_115" data-name="Path 115" d="M13.56,17.82a.5.5,0,0,1-.5-.5V2.82a.5.5,0,0,1,1,0v14.5A.5.5,0,0,1,13.56,17.82Z" fill="#0060af"/>
</svg>
