<?xml version="1.0" encoding="utf-8"?>
<!-- Generator: Adobe Illustrator 28.0.0, SVG Export Plug-In . SVG Version: 6.00 Build 0)  -->
<svg version="1.1" id="Layer_1" xmlns="http://www.w3.org/2000/svg" xmlns:xlink="http://www.w3.org/1999/xlink" x="0px" y="0px"
	 viewBox="0 0 93.1 65.3" style="enable-background:new 0 0 93.1 65.3;" xml:space="preserve">
<style type="text/css">
	.st0{fill:#FFFFFF;}
</style>
<g>
	<path class="st0" d="M45.7,16.5c0,0,2.4,0,3.6,0c1.3,0,2.6,0.5,3.6,1.5l17.3,17.3c3-3,3-7.8,0-10.8L58.5,12.7
		c-2.4-2.4-5.6-3.8-9-3.8h-1.1c-4.2,0-7.6,3.4-7.6,7.6c0,1.6,0.5,2.9,1.3,4.3C41.7,18.6,43.5,16.5,45.7,16.5z"/>
	<path class="st0" d="M73.1,9.5l6.2,6.2c2.6,2.6,7.5,3,10.7-0.1L79.2,4.8l-0.7-0.7C75.9,1.5,72.3,0,68.6,0L58.5,0
		c-4.4,0-8.2,3.3-8.8,7.6h18.9C70.3,7.6,71.9,8.3,73.1,9.5z"/>
	<path class="st0" d="M59.5,10.8c0,2,1.7,3.7,3.7,3.7c2,0,3.7-1.6,3.7-3.7c0-0.7-0.2-1.3-0.5-1.9H60C59.7,9.5,59.5,10.1,59.5,10.8z"
		/>
	<path class="st0" d="M0,39.5v25.9h93.1V39.5H0z M14.2,61.6c-5.2,0-9.3-4-9.3-9c0-5,4-9.3,9.3-9.3c5,0,9,4.3,9,9.3
		C23.3,57.5,19.2,61.6,14.2,61.6z M33.5,61.1l-2.8-5.7v5.7h-5.5V43.7h7.1c4.5,0,6.9,2.1,6.9,5.9c0,2.4-1.4,4-3.3,4.3l4.5,7.1H33.5z
		 M53.6,61.1H42V43.7h6.2v12.6h5.5V61.1z M68.4,61.1H55.5V43.7h12.1V48H61v2.1h3.6v4H61v2.1h7.4V61.1z M86.6,61.1h-5.2l-5.9-9
		c0.2,0.9,0.2,1.9,0.2,2.6v6.4h-5.5V43.7h5.2l5.9,9c0-1.2-0.2-2.1-0.2-2.8c0-0.2,0-0.2,0-0.5v-5.7h5.5V61.1z"/>
	<path class="st0" d="M31.6,48h-0.9v0.2v3.3v0.2h0.9c1.4,0,2.1-0.7,2.1-1.9S33,48,31.6,48z"/>
	<path class="st0" d="M14.2,49c-2.1,0-3.8,1.4-3.8,3.6c0,1.9,1.7,3.6,3.8,3.6c1.9,0,3.6-1.7,3.6-3.6C17.8,50.4,16.1,49,14.2,49z"/>
</g>
</svg>
