<svg xmlns="http://www.w3.org/2000/svg" width="152.219" height="95.708" viewBox="0 0 152.219 95.708">
  <g id="Group_1" data-name="Group 1" transform="translate(-3627.39 1004)">
    <path id="Path_7" data-name="Path 7" d="M390.785,318.024h-5.108V312.9c0-.687-.294-1.025-.884-1.025s-.9.338-.9,1.025v12.788c0,.706.3,1.056.9,1.056s.884-.35.884-1.056v-5.058h5.108v5.089q0,4.226-5.918,4.229-6.078,0-6.077-4.407v-12.5q0-4.412,6.077-4.408,5.922,0,5.918,4.23v5.157Z" transform="translate(3301.232 -1238.244)" fill="#fff"/>
    <path id="Path_8" data-name="Path 8" d="M372.218,329.779h-5.126V308.9h5.126v20.879Z" transform="translate(3306.366 -1238.359)" fill="#fff"/>
    <path id="Path_9" data-name="Path 9" d="M372.218,303.9h-5.126v-3.757h5.126V303.9Z" transform="translate(3306.366 -1234.519)" fill="#fff"/>
    <path id="Path_10" data-name="Path 10" d="M356.747,326.485h-3.235q-3.472,0-4.157-1.044a8.053,8.053,0,0,1-.681-4.008V308.7h-2.283v-3.094h2.283v-4.211H353.8v4.211h2.769V308.7H353.8v12.7a1.3,1.3,0,0,0,.546,1.234,5.788,5.788,0,0,0,2.4.313v3.542Z" transform="translate(3315.45 -1235.066)" fill="#fff"/>
    <path id="Path_11" data-name="Path 11" d="M320.053,271.488h-5.126l.55-52.883c-.138-.052-.273-.112-.406-.176l-.805,3.419L287.32,236.86l-.636-.915L312.46,215.2a4.9,4.9,0,0,1,2.618-5.585L312.3,207l.474-30.84,1.108-.094,5.191,33.421a4.9,4.9,0,0,1,3.033,4.238c0,.069.006.139.008.208l4.023-1.211,26.472,15.831-.474,1.007-31.38-12.153a4.9,4.9,0,0,1-1.135.883l.43,53.2Z" transform="translate(3341.651 -1180.069)" fill="#fff"/>
    <path id="Path_12" data-name="Path 12" d="M319.047,325.759v-5.378q-1.768.434-1.768,1.585v3.794q0,.958.921.957.847,0,.847-.957Zm5.126,3.9h-4.536v-.81c-.38.731-1.48,1.1-3.291,1.1q-4.19,0-4.193-3.272v-4.194a3.4,3.4,0,0,1,1.019-2.443,16.87,16.87,0,0,1,4.095-2.609c1.185-.6,1.78-1.08,1.78-1.442V312.9c0-.687-.294-1.025-.884-1.025-.669,0-1.007.829-1.007,2.5,0,.3.018.742.056,1.332s.067,1.032.067,1.327h-4.942v-4.168q0-4.227,6.115-4.23,5.719,0,5.722,4.408v16.618Z" transform="translate(3330.475 -1238.244)" fill="#fff"/>
    <path id="Path_13" data-name="Path 13" d="M293.1,321.26v-6.526c0-.9-.528-1.351-1.578-1.351v9.246c1.05,0,1.578-.455,1.578-1.369Zm0-12.051v-4.384c0-.9-.528-1.35-1.578-1.35v7.1c1.05,0,1.578-.454,1.578-1.369Zm-7.244,16.729V300.147h6.673a7.748,7.748,0,0,1,4.15,1.087,3.774,3.774,0,0,1,1.762,3.481v3.579c0,1.811-1.1,3.088-3.309,3.831q3.491.866,3.493,3.721v5a4.5,4.5,0,0,1-1.664,3.819A6.346,6.346,0,0,1,293,325.938Z" transform="translate(3342.014 -1234.518)" fill="#fff"/>
    <path id="Path_14" data-name="Path 14" d="M303.092,275.014l.161.115-.928,1.157-.145-.132a2.438,2.438,0,0,1-.476.254l1.012,1.475-3.556,15.287-.561-.072,1-16.81a2.5,2.5,0,0,1-1.209-2.9l-1.932.153L285,262.82l.343-.449,14.362,9.467a2.49,2.49,0,0,1,2.632.306c.027.022.055.045.081.068l.919-1.929,15.01-4.561.218.523-15.3,7.668a2.491,2.491,0,0,1-.171,1.1Z" transform="translate(3342.39 -1217.941)" fill="#fff" fill-rule="evenodd"/>
    <path id="Path_15" data-name="Path 15" d="M505.538,317.167v-4.783c0-.688-.3-1.025-.885-1.025s-.9.337-.9,1.025v4.783Zm5.108,3.131h-6.889v4.875c0,.705.3,1.056.9,1.056s.885-.351.885-1.056v-4.212h5.108V325.2q0,4.228-6.029,4.231-5.97,0-5.969-4.409v-12.5q0-4.413,5.969-4.409,6.032,0,6.029,4.231V320.3Z" transform="translate(3248.635 -1238.016)" fill="#fff"/>
    <path id="Path_16" data-name="Path 16" d="M480.395,308.38l-3.58,20.882h-5.63l-1.6-8.547-1.461,8.547h-5.895l-3.58-20.882h4.943l1.763,11.347,1.584-11.347H472.1l1.585,11.347,1.762-11.347Z" transform="translate(3266.189 -1238.131)" fill="#fff"/>
    <path id="Path_17" data-name="Path 17" d="M443.048,325.174v-12.79c0-.688-.295-1.025-.878-1.025-.6,0-.9.337-.9,1.025v12.79c0,.705.3,1.056.9,1.056.583,0,.878-.351.878-1.056Zm-6.907-.148v-12.5q0-4.413,6.1-4.409a8.236,8.236,0,0,1,4.151,1.025,3.44,3.44,0,0,1,1.787,3.205V325.2q0,4.228-5.937,4.231-6.1,0-6.1-4.409Z" transform="translate(3276.065 -1238.016)" fill="#fff"/>
    <path id="Path_18" data-name="Path 18" d="M418.976,310.869V304.68c0-.909-.632-1.37-1.891-1.37v8.928c1.258,0,1.891-.461,1.891-1.37Zm-1.891,5.054v9.5h-5.52V299.627h5.949a11.856,11.856,0,0,1,5.262.9c1.149.6,1.718,1.824,1.718,3.672v7.158a4.19,4.19,0,0,1-1.405,3.586q-1.4,1.059-6.005.983Z" transform="translate(3286.849 -1234.29)" fill="#fff"/>
    <path id="Path_19" data-name="Path 19" d="M501.15,242.891l-1.882,1.859-23.2-1.205-.04-.837,24.746-2.923a3.625,3.625,0,0,1,.266-.616,3.692,3.692,0,0,1,3.638-1.9l-.726-2.777L516.6,215.007l.744.383-10.06,23.4a3.687,3.687,0,0,1,.24,3.918c-.024.046-.051.091-.079.136l3.052.837,10.555,20.709-.7.453L506.295,246l.831,22.1a4.922,4.922,0,0,1,3.169-.847,4.316,4.316,0,0,1,2.627.816,2.562,2.562,0,0,1,1.093,2.155v5.827h-5.126v-4.531c0-.639-.295-.958-.879-.958s-.884.306-.884.921v16.8H502l.855-43.847a3.116,3.116,0,0,1-1.7-1.548Z" transform="translate(3258.56 -1197.156)" fill="#fff"/>
  </g>
</svg>
