<?xml version="1.0" encoding="utf-8"?>
<!-- Generator: Adobe Illustrator 28.0.0, SVG Export Plug-In . SVG Version: 6.00 Build 0)  -->
<svg version="1.1" id="Layer_1" xmlns="http://www.w3.org/2000/svg" xmlns:xlink="http://www.w3.org/1999/xlink" x="0px" y="0px"
	 viewBox="0 0 110.6 65.4" style="enable-background:new 0 0 110.6 65.4;" xml:space="preserve">
<style type="text/css">
	.st0{fill:#FFFFFF;}
</style>
<g>
	<path class="st0" d="M40.3,22.7C36.9,13.3,49.2,3.3,57.5,6c-7-3-18.2,1-21,8.2c-4.8,12.1,5.9,17.6,10.1,18.7
		c3.7,1,6.7,0.5,11.2-0.4c7-1.5,28.8-8,28.8-8C70.9,27.1,46.7,36.1,40.3,22.7z"/>
	<path class="st0" d="M59.6,49.7c0.1,0.1,0.3,0.2,0.5,0.2h1.5c0.2,0,0.4-0.1,0.5-0.2c0-0.1,0.1-0.1,0.1-0.2V41c0,0,0-0.1-0.1-0.2
		c0-0.1-0.2-0.2-0.5-0.2h-1.5c-0.3,0-0.5,0.1-0.5,0.2c-0.1,0.1-0.1,0.1-0.1,0.2v3.2h-5.4V41c0-0.1,0-0.1-0.1-0.2
		c-0.1-0.1-0.2-0.2-0.5-0.2h-1.5c-0.3,0-0.5,0.1-0.5,0.2c-0.1,0.1-0.1,0.1-0.1,0.2v8.6c0,0,0,0.1,0.1,0.2c0.1,0.1,0.3,0.2,0.5,0.2
		h1.5c0.3,0,0.5-0.2,0.5-0.2c0.1-0.1,0.1-0.1,0.1-0.2l0-3.2h5.4v3.2C59.5,49.6,59.6,49.7,59.6,49.7z"/>
	<path class="st0" d="M67,10.7c3.4,9.5-8.9,19.4-17.3,16.7c7,3,18.2-1,21-8.2C75.6,7.1,64.9,1.7,60.7,0.6C56.9-0.4,53.9,0,49.5,1
		c-7,1.5-28.8,8-28.8,8C36.4,6.2,60.6-2.7,67,10.7z"/>
	<path class="st0" d="M43.5,49.9h1.6c0.3,0,0.5-0.2,0.5-0.3v-7h3.9c0.5,0,0.5-0.3,0.5-0.3l-0.5-1.4c0-0.1-0.2-0.2-0.4-0.2h-9.4
		c-0.3,0-0.4,0.1-0.4,0.2l-0.5,1.4c0,0-0.1,0.3,0.5,0.3H43v7C43,49.7,43.2,49.9,43.5,49.9z"/>
	<path class="st0" d="M77.2,49.7l0.7-1.3h4.9l0.7,1.3c0.1,0.1,0.3,0.2,0.5,0.2h1.7c0.2,0,0.4-0.1,0.5-0.2c0,0,0-0.1,0-0.1
		c0,0,0-0.1,0-0.1l-4.4-8.6c0,0-0.1-0.2-0.5-0.2h-1.9c-0.3,0-0.5,0.2-0.5,0.2l-4.4,8.6c0,0,0,0.1,0,0.1c0,0.1,0.2,0.3,0.5,0.3h1.7
		C76.9,49.9,77.1,49.8,77.2,49.7z M79.1,45.9c0.2-0.3,0.4-0.8,0.6-1.2c0.2-0.4,0.4-0.8,0.6-1.2l1.4,2.7h-2.8
		C79,46.1,79,46,79.1,45.9z"/>
	<path class="st0" d="M30.5,55.9h-6.9c-0.2,0-0.5,0.1-0.5,0.3v8.6c0,0.1,0.3,0.3,0.5,0.3h1.5c0.3,0,0.5-0.2,0.5-0.3V62h4.8
		c1.7,0,3.3-1.2,3.3-2.9V59C33.8,57.2,32.3,55.9,30.5,55.9z M30.5,59.9h-4.9V58h4.9c0.4,0,0.7,0.7,0.7,1S30.9,59.9,30.5,59.9z"/>
	<path class="st0" d="M73.2,49.7l0.5-1.5v0c0-0.1-0.2-0.3-0.5-0.3h-6.7V41c0,0,0-0.1-0.1-0.2c0-0.1-0.2-0.2-0.5-0.2h-1.5
		c-0.3,0-0.5,0.1-0.5,0.2c-0.1,0.1-0.1,0.1-0.1,0.2v8.6c0,0,0,0.1,0.1,0.2c0,0.1,0.2,0.2,0.5,0.2h8.2C72.9,49.9,73.2,49.8,73.2,49.7
		z"/>
	<path class="st0" d="M40.7,55.7c-0.9,0-1.8,0.2-2.6,0.5c-2.7,1-3.5,2.8-3.5,4.4c0,3,3.4,4.8,6.1,4.8c3.1,0,5-1.5,5.6-2.9
		c0.3-0.6,0.4-1.3,0.4-1.9C46.8,57.4,43.5,55.7,40.7,55.7z M43.9,61.6c-0.5,0.9-1.6,1.6-3.2,1.6c-1.5,0-3.5-0.9-3.5-2.7
		c0-0.4,0.1-0.8,0.3-1.1c0.5-0.8,1.7-1.5,3.2-1.5c1.5,0,3.5,0.9,3.5,2.7C44.2,60.9,44.1,61.2,43.9,61.6z"/>
	<path class="st0" d="M37.1,49.9c0.3,0,0.5-0.2,0.5-0.3c0,0,0-0.1-0.1-0.2c0,0-0.1-0.1-0.1-0.1c-0.1-0.1-0.2-0.2-0.3-0.4
		c-0.3-0.3-0.7-0.7-1.1-1.1c-0.4-0.4-0.7-0.8-1.1-1.1c-0.1-0.1-0.2-0.2-0.2-0.3c1.4-0.2,2.6-1.3,2.6-2.8c0-1.8-1.5-3.1-3.3-3.1h-7
		c-0.3,0-0.5,0.2-0.5,0.3v8.6c0,0.1,0.2,0.3,0.5,0.3h1.6c0.3,0,0.5-0.2,0.5-0.3v-3h2.4l3,3.2c0.1,0.1,0.2,0.2,0.4,0.2H37.1z
		 M34.1,44.4h-4.9v-1.6h4.9c0.4,0,0.7,0.6,0.7,0.9C34.8,44.1,34.5,44.4,34.1,44.4z"/>
	<path class="st0" d="M63.1,55.9h-1.9l-0.1,0C61,56,60.9,56,60.9,56.1l-2.3,5l-1.8-4.3c-0.1-0.2-0.2-0.5-0.3-0.7
		c-0.1-0.1-0.2-0.2-0.5-0.2h-1.2c-0.2,0-0.4,0.1-0.5,0.2c-0.1,0.2-0.2,0.4-0.3,0.7l-1.8,4.3l-2.3-5c-0.1-0.1-0.2-0.2-0.5-0.2h-1.8
		c-0.3,0-0.5,0.2-0.5,0.3c0,0,0,0.1,0,0.1l4,8.7c0,0.1,0.1,0.1,0.2,0.2l0.1,0h1.3c0.2,0,0.4-0.2,0.5-0.2l2-4.8l2,4.8
		c0,0,0.1,0.1,0.1,0.2l0.1,0.1h1.4c0.2,0,0.4-0.1,0.5-0.2l4-8.7c0,0,0-0.1,0-0.1C63.6,56.1,63.4,55.9,63.1,55.9z"/>
	<path class="st0" d="M104.6,40.6H100c-0.3,0-0.6,0.1-0.6,0.4v8.4c0,0.3,0.4,0.4,0.6,0.4h4.6c4.8,0,6-2.7,6-4.6
		C110.6,42,107.6,40.6,104.6,40.6z M104.6,47.8H102v-5h2.6c2.5,0,3.4,1.1,3.4,2.5C108,46.8,107.5,47.8,104.6,47.8z"/>
	<path class="st0" d="M74.3,58c0.3,0,0.5-0.2,0.5-0.3c0,0,0-0.1,0-0.1l-0.5-1.5c0-0.1-0.3-0.3-0.5-0.3h-8.3c-0.3,0-0.5,0.1-0.5,0.2
		c-0.1,0.1-0.1,0.1-0.1,0.2v8.5c0,0.1,0,0.1,0.1,0.2c0.1,0.1,0.2,0.2,0.5,0.2h8.3c0.3,0,0.5-0.2,0.5-0.3l0.5-1.5c0,0,0,0,0-0.1
		c0-0.1-0.2-0.3-0.5-0.3h-6.8v-1.4h4.5c0.3,0,0.5-0.2,0.5-0.3l0.5-1.5v0c0-0.1-0.2-0.3-0.5-0.3h-5V58H74.3z"/>
	<path class="st0" d="M97.8,40.8c0,0-0.2-0.2-0.5-0.2h-1.5c-0.3,0-0.5,0.2-0.5,0.2c0,0.1-0.1,0.1-0.1,0.2l0,5.2l-5.7-5.4
		c-0.1-0.1-0.2-0.2-0.5-0.2H88c-0.3,0-0.5,0.2-0.5,0.2c0,0.1-0.1,0.1-0.1,0.2v8.5c0,0.1,0,0.1,0.1,0.2c0,0,0.2,0.2,0.5,0.2h1.4
		c0.2,0,0.6-0.1,0.6-0.4v-5.2l5.7,5.4c0.1,0.1,0.2,0.2,0.5,0.2h1.2c0.3,0,0.5-0.2,0.5-0.2c0.1-0.1,0.1-0.1,0.1-0.2l0-8.5
		C97.9,40.9,97.9,40.9,97.8,40.8z"/>
	<path class="st0" d="M87.3,64.6c-0.1-0.1-0.2-0.2-0.3-0.4c-0.3-0.3-0.7-0.7-1.1-1.1c-0.4-0.4-0.7-0.8-1.1-1.1
		c-0.1-0.1-0.2-0.2-0.2-0.3c1.4-0.2,2.6-1.3,2.6-2.8c0-1.8-1.5-3.1-3.3-3.1h-7c-0.3,0-0.5,0.2-0.5,0.3v8.6c0,0.1,0.2,0.3,0.5,0.3
		h1.6c0.3,0,0.5-0.2,0.5-0.3v-3h2.4l3,3.2c0.1,0.1,0.2,0.2,0.4,0.2h2c0.3,0,0.5-0.2,0.5-0.3c0,0,0-0.1-0.1-0.2
		C87.4,64.7,87.4,64.6,87.3,64.6z M84,59.6h-4.9V58H84c0.4,0,0.7,0.6,0.7,0.9C84.7,59.3,84.4,59.6,84,59.6z"/>
	<path class="st0" d="M24.2,47.2c0.3-0.6,0.4-1.3,0.4-1.9c0-3.2-3.3-4.8-6.1-4.8c-0.9,0-1.8,0.2-2.6,0.5c-2.7,1-3.5,2.8-3.5,4.4
		c0,3,3.4,4.8,6.1,4.8C21.7,50.1,23.5,48.6,24.2,47.2z M21.8,46.3c-0.5,0.9-1.6,1.6-3.2,1.6c-1.5,0-3.5-0.9-3.5-2.7
		c0-0.4,0.1-0.8,0.3-1.1c0.5-0.8,1.7-1.5,3.2-1.5c1.5,0,3.5,0.9,3.5,2.7C22.1,45.6,22,46,21.8,46.3z"/>
	<path class="st0" d="M10.4,40.8c0,0-0.2-0.2-0.5-0.2H8.5c-0.3,0-0.5,0.2-0.5,0.2c0,0.1-0.1,0.1-0.1,0.2l0,5.2l-5.7-5.4
		c-0.1-0.1-0.2-0.2-0.5-0.2H0.6c-0.3,0-0.5,0.2-0.5,0.2C0,40.9,0,41,0,41v8.5c0,0.1,0,0.1,0.1,0.2c0,0,0.2,0.2,0.5,0.2H2
		c0.2,0,0.6-0.1,0.6-0.4v-5.2l5.7,5.4c0.1,0.1,0.2,0.2,0.5,0.2h1.2c0.3,0,0.5-0.2,0.5-0.2c0.1-0.1,0.1-0.1,0.1-0.2l0-8.5
		C10.5,40.9,10.5,40.9,10.4,40.8z"/>
</g>
</svg>
